<mxfile host="app.diagrams.net" agent="Mozilla/5.0 (Windows NT 10.0; Win64; x64) AppleWebKit/537.36 (KHTML, like Gecko) Chrome/139.0.0.0 Safari/537.36" version="28.1.2">
  <diagram name="Page-1" id="syEOLBhVAVta10Gxd06x">
    <mxGraphModel dx="1523" dy="1511" grid="0" gridSize="5" guides="1" tooltips="1" connect="1" arrows="1" fold="1" page="0" pageScale="1" pageWidth="1100" pageHeight="850" math="0" shadow="0">
      <root>
        <mxCell id="0" />
        <mxCell id="1" parent="0" />
        <UserObject label="" tags="Background" id="NBB4tk9cv-uJ-knDmhPw-246">
          <mxCell style="vsdxID=161;fillColor=none;gradientColor=none;shape=stencil(pVDLCoMwEPyavUq6i9i71f8QjGZpmkiMj/59E5ZSKdRLbzO7MwMzQPVsukkDqjkGf9cb99EA3QCRndGBY0JADVA9+KDH4BfXC5+6rMzo4decsItPZQeqp7CLEt6K1LI7SAnL6ooF4b8WPLO8836IE/hUGdhaWeL4/66eTjIbNS8=);strokeColor=#191919;spacingTop=-3;spacingBottom=-3;spacingLeft=-3;spacingRight=-3;points=[];labelBackgroundColor=none;rounded=0;html=1;whiteSpace=wrap;" parent="1" vertex="1">
            <mxGeometry x="145" y="-675" height="906" as="geometry" />
          </mxCell>
        </UserObject>
        <UserObject label="" tags="Background" id="NBB4tk9cv-uJ-knDmhPw-259">
          <mxCell style="vsdxID=308;fillColor=none;gradientColor=none;shape=stencil(dY9JDoAwCEVPw77CERzuYWK1xNqaWqfb24aFQ+Luf3jAB6hcTDtrQLXE4Ee9cxcNUAWI7IwOHJMCqoHK3gc9BL+6TvzcZjKryW95wyFzKk+gOsUVSnwjqGX3i+IbTeI+0bO1kvDZ/0ZKJXmH6gs=);strokeColor=#191919;spacingTop=-3;spacingBottom=-3;spacingLeft=-3;spacingRight=-3;points=[];labelBackgroundColor=none;rounded=0;html=1;whiteSpace=wrap;" parent="1" vertex="1">
            <mxGeometry x="1534" y="573" height="156" as="geometry" />
          </mxCell>
        </UserObject>
        <UserObject label="" tags="Background" id="NBB4tk9cv-uJ-knDmhPw-261">
          <mxCell style="vsdxID=156;fillColor=none;gradientColor=none;shape=stencil(fY9BEoMgDEVPkz0mR1C69A7MiCVTBAfRtrcXzMLWhbv/k5fkB6hdnJktoFpyii/75iE7oA4QOTibOBcFpIHaMSb7THENg/jZVLKqKW51w0fmetPXGVRf8Y1Sh38I7DncwPgPF3GeGdl7Sfnbv8YqJXmJ9A4=);strokeColor=#191919;spacingTop=-3;spacingBottom=-3;spacingLeft=-3;spacingRight=-3;points=[];labelBackgroundColor=none;rounded=0;html=1;whiteSpace=wrap;;flipV=1;" parent="1" vertex="1">
            <mxGeometry x="93" y="1111" height="248" as="geometry" />
          </mxCell>
        </UserObject>
        <UserObject label="" tags="Background" id="NBB4tk9cv-uJ-knDmhPw-262">
          <mxCell style="vsdxID=158;fillColor=none;gradientColor=none;shape=stencil(fY9BEoMgDEVPkz0mR1C69A7MiCVTBAfRtrcXzMLWhbv/k5fkB6hdnJktoFpyii/75iE7oA4QOTibOBcFpIHaMSb7THENg/jZVLKqKW51w0fmetPXGVRf8Y1Sh38I7DncwPgPF3GeGdl7Sfnbv8YqJXmJ9A4=);strokeColor=#191919;spacingTop=-3;spacingBottom=-3;spacingLeft=-3;spacingRight=-3;points=[];labelBackgroundColor=none;rounded=0;html=1;whiteSpace=wrap;;flipV=1;movable=1;resizable=1;rotatable=1;deletable=1;editable=1;locked=0;connectable=1;" parent="1" vertex="1">
            <mxGeometry x="95" y="905" height="85" as="geometry" />
          </mxCell>
        </UserObject>
        <UserObject label="" tags="Background" id="NBB4tk9cv-uJ-knDmhPw-263">
          <mxCell style="vsdxID=159;fillColor=none;gradientColor=none;shape=stencil(fY9BEoMgDEVPkz0mR1C69A7MiCVTBAfRtrcXzMLWhbv/k5fkB6hdnJktoFpyii/75iE7oA4QOTibOBcFpIHaMSb7THENg/jZVLKqKW51w0fmetPXGVRf8Y1Sh38I7DncwPgPF3GeGdl7Sfnbv8YqJXmJ9A4=);strokeColor=#191919;spacingTop=-3;spacingBottom=-3;spacingLeft=-3;spacingRight=-3;points=[];labelBackgroundColor=none;rounded=0;html=1;whiteSpace=wrap;;flipV=1;movable=1;resizable=1;rotatable=1;deletable=1;editable=1;locked=0;connectable=1;" parent="1" vertex="1">
            <mxGeometry x="95" y="670" height="90" as="geometry" />
          </mxCell>
        </UserObject>
        <UserObject label="" tags="Background" id="NBB4tk9cv-uJ-knDmhPw-268">
          <mxCell style="vsdxID=284;fillColor=none;gradientColor=none;shape=stencil(UzV2Ls5ILEhVNTIoLinKz04tz0wpyVA1dlE1MsrMy0gtyiwBslSNXVWNndPyi1LTi/JL81Ig/IJEkEoQKze/DGRCBUSfX6IfSI+RQSWEb2hgAOa7QRTnZObhU2xprmdshqweyEDYlJaZkwNxKLI8usuAQhBfGbsCAA==);strokeColor=#191919;spacingTop=-3;spacingBottom=-3;spacingLeft=-3;spacingRight=-3;points=[];labelBackgroundColor=none;rounded=0;html=1;whiteSpace=wrap;;flipV=1;movable=1;resizable=1;rotatable=1;deletable=1;editable=1;locked=0;connectable=1;" parent="1" vertex="1">
            <mxGeometry x="95" y="140" height="40" as="geometry" />
          </mxCell>
        </UserObject>
        <UserObject label="" tags="Background" id="NBB4tk9cv-uJ-knDmhPw-270">
          <mxCell style="vsdxID=287;fillColor=none;gradientColor=none;shape=stencil(UzV2Ls5ILEhVNTIoLinKz04tz0wpyVA1dlE1MsrMy0gtyiwBslSNXVWNndPyi1LTi/JL81Ig/IJEkEoQKze/DGRCBUSfX6IfSI+RQSWEb2hgAOa7QRTnZObhU2xprmdshqweyEDYlJaZkwNxKLI8usuAQhBfGbsCAA==);strokeColor=#191919;spacingTop=-3;spacingBottom=-3;spacingLeft=-3;spacingRight=-3;points=[];labelBackgroundColor=none;rounded=0;html=1;whiteSpace=wrap;;flipV=1;movable=1;resizable=1;rotatable=1;deletable=1;editable=1;locked=0;connectable=1;" parent="1" vertex="1">
            <mxGeometry x="95" y="140" height="40" as="geometry" />
          </mxCell>
        </UserObject>
        <UserObject label="" tags="Background" id="NBB4tk9cv-uJ-knDmhPw-271">
          <mxCell style="vsdxID=289;fillColor=none;gradientColor=none;shape=stencil(fY9BEoMgDEVPkz0mR1C69A7MiCVTBAfRtrcXzMLWhbv/k5fkB6hdnJktoFpyii/75iE7oA4QOTibOBcFpIHaMSb7THENg/jZVLKqKW51w0fmetPXGVRf8Y1Sh38I7DncwPgPF3GeGdl7Sfnbv8YqJXmJ9A4=);strokeColor=#191919;spacingTop=-3;spacingBottom=-3;spacingLeft=-3;spacingRight=-3;points=[];labelBackgroundColor=none;rounded=0;html=1;whiteSpace=wrap;;flipV=1;movable=1;resizable=1;rotatable=1;deletable=1;editable=1;locked=0;connectable=1;" parent="1" vertex="1">
            <mxGeometry x="95" y="1000" height="30" as="geometry" />
          </mxCell>
        </UserObject>
        <UserObject label="" tags="Background" id="NBB4tk9cv-uJ-knDmhPw-309">
          <mxCell style="vsdxID=392;fillColor=none;gradientColor=none;shape=stencil(dU9bDoAgDDvN/pEdwcc9TEBZRCCIr9sLWYzGxL92bbcOsF5MHzRIsaToJ72TSgawASnJGR0pZQTYAtaDj3qMfnWKeeiLs6DZb2XDwTlRElKczCrBvGOrJfey3uKPOYPnyEDWcse3/i2VR/wQthc=);strokeColor=#191919;spacingTop=-3;spacingBottom=-3;spacingLeft=-3;spacingRight=-3;points=[];labelBackgroundColor=none;rounded=0;html=1;whiteSpace=wrap;" parent="1" vertex="1">
            <mxGeometry x="658" y="384" width="16" as="geometry" />
          </mxCell>
        </UserObject>
        <UserObject label="" tags="Background" id="NBB4tk9cv-uJ-knDmhPw-343">
          <mxCell style="vsdxID=468;fillColor=none;gradientColor=none;shape=stencil(dY9JDoAwCEVPw77CERzuYWK1xNqaWqfb24aFQ+Luf3jAB6hcTDtrQLXE4Ee9cxcNUAWI7IwOHJMCqoHK3gc9BL+6TvzcZjKryW95wyFzKk+gOsUVSnwjqGX3i+IbTeI+0bO1kvDZ/0ZKJXmH6gs=);strokeColor=#191919;spacingTop=-3;spacingBottom=-3;spacingLeft=-3;spacingRight=-3;points=[];labelBackgroundColor=none;rounded=0;html=1;whiteSpace=wrap;;flipV=1;" parent="1" vertex="1">
            <mxGeometry x="1534" y="641" height="77" as="geometry" />
          </mxCell>
        </UserObject>
        <UserObject label="" tags="Background" id="NBB4tk9cv-uJ-knDmhPw-379">
          <mxCell style="vsdxID=537;fillColor=none;gradientColor=none;shape=stencil(fY9LDoAgDERP0z3SI/hZegcSURoRDOLv9oJdaFy4m2lf2ylguRg1a5BiicGPeqcuGsAKpCRndKCYFGANWPY+6CH41XXsZ5XJrCa/5Q0Hz4k8IcXJrlXt7RtGLbkXWohfOInnSE/WcsZ3/xsqlfghrC8=);strokeColor=#191919;spacingTop=-3;spacingBottom=-3;spacingLeft=-3;spacingRight=-3;points=[];labelBackgroundColor=none;rounded=0;html=1;whiteSpace=wrap;;flipH=1;" parent="1" vertex="1">
            <mxGeometry x="392" y="385" width="33" as="geometry" />
          </mxCell>
        </UserObject>
        <UserObject label="" tags="Background" id="NBB4tk9cv-uJ-knDmhPw-415">
          <mxCell style="vsdxID=615;fillColor=none;gradientColor=none;shape=stencil(dU9bDoAgDDvN/pEdwcc9TEBZRCCIr9sLWYzGxL92bbcOsF5MHzRIsaToJ72TSgawASnJGR0pZQTYAtaDj3qMfnWKeeiLs6DZb2XDwTlRElKczCrBvGOrJfey3uKPOYPnyEDWcse3/i2VR/wQthc=);strokeColor=#191919;spacingTop=-3;spacingBottom=-3;spacingLeft=-3;spacingRight=-3;points=[];labelBackgroundColor=none;rounded=0;html=1;whiteSpace=wrap;;flipH=1;" parent="1" vertex="1">
            <mxGeometry x="530" y="384" width="18" as="geometry" />
          </mxCell>
        </UserObject>
        <UserObject label="" tags="Background" id="NBB4tk9cv-uJ-knDmhPw-420">
          <mxCell style="vsdxID=376;fillColor=none;gradientColor=none;shape=stencil(dY9JDoAwCEVPw77CERzuYWK1xNqaWqfb24aFQ+Luf3jAB6hcTDtrQLXE4Ee9cxcNUAWI7IwOHJMCqoHK3gc9BL+6TvzcZjKryW95wyFzKk+gOsUVSnwjqGX3i+IbTeI+0bO1kvDZ/0ZKJXmH6gs=);strokeColor=#191919;spacingTop=-3;spacingBottom=-3;spacingLeft=-3;spacingRight=-3;points=[];labelBackgroundColor=none;rounded=0;html=1;whiteSpace=wrap;" parent="1" vertex="1">
            <mxGeometry x="603" y="175" height="88" as="geometry" />
          </mxCell>
        </UserObject>
        <UserObject label="" tags="Background" id="NBB4tk9cv-uJ-knDmhPw-438">
          <mxCell style="vsdxID=387;fillColor=none;gradientColor=none;shape=stencil(XY9ZDoAgDERP039sj+ByDxNRGhEM4nZ7IY1x+ZvpvG5A5WLaWQOqJQY/6p27aIAqQGRndOCYFFANVPY+6CH41XXi5zaTWU1+yxMO6VO5A9UprlDiG0Etuxd6hzeMXziJZ0nP1sqN7/x/VCrJQ1Rf);strokeColor=#191919;spacingTop=-3;spacingBottom=-3;spacingLeft=-3;spacingRight=-3;points=[];labelBackgroundColor=none;rounded=0;html=1;whiteSpace=wrap;" parent="1" vertex="1">
            <mxGeometry x="869" y="850" height="16" as="geometry" />
          </mxCell>
        </UserObject>
        <UserObject label="" tags="Background" id="NBB4tk9cv-uJ-knDmhPw-440">
          <mxCell style="vsdxID=391;fillColor=none;gradientColor=none;shape=stencil(XY9ZDoAgDERP039sj+ByDxNRGhEM4nZ7IY1x+ZvpvG5A5WLaWQOqJQY/6p27aIAqQGRndOCYFFANVPY+6CH41XXi5zaTWU1+yxMO6VO5A9UprlDiG0Etuxd6hzeMXziJZ0nP1sqN7/x/VCrJQ1Rf);strokeColor=#191919;spacingTop=-3;spacingBottom=-3;spacingLeft=-3;spacingRight=-3;points=[];labelBackgroundColor=none;rounded=0;html=1;whiteSpace=wrap;" parent="1" vertex="1">
            <mxGeometry x="924" y="832" width="19" as="geometry" />
          </mxCell>
        </UserObject>
        <UserObject label="" tags="Background" id="NBB4tk9cv-uJ-knDmhPw-442">
          <mxCell style="vsdxID=406;fillColor=none;gradientColor=none;shape=stencil(XY9ZDoAgDERP039sj+ByDxNRGhEM4nZ7IY1x+ZvpvG5A5WLaWQOqJQY/6p27aIAqQGRndOCYFFANVPY+6CH41XXi5zaTWU1+yxMO6VO5A9UprlDiG0Etuxd6hzeMXziJZ0nP1sqN7/x/VCrJQ1Rf);strokeColor=#191919;spacingTop=-3;spacingBottom=-3;spacingLeft=-3;spacingRight=-3;points=[];labelBackgroundColor=none;rounded=0;html=1;whiteSpace=wrap;" parent="1" vertex="1">
            <mxGeometry x="145" y="73" width="139" as="geometry" />
          </mxCell>
        </UserObject>
        <UserObject label="" tags="Background" id="NBB4tk9cv-uJ-knDmhPw-448">
          <mxCell style="vsdxID=415;fillColor=none;gradientColor=none;shape=stencil(XY9ZDoAgDERP039sj+ByDxNRGhEM4nZ7IY1x+ZvpvG5A5WLaWQOqJQY/6p27aIAqQGRndOCYFFANVPY+6CH41XXi5zaTWU1+yxMO6VO5A9UprlDiG0Etuxd6hzeMXziJZ0nP1sqN7/x/VCrJQ1Rf);strokeColor=#191919;spacingTop=-3;spacingBottom=-3;spacingLeft=-3;spacingRight=-3;points=[];labelBackgroundColor=none;rounded=0;html=1;whiteSpace=wrap;" parent="1" vertex="1">
            <mxGeometry x="391" y="73" width="153" as="geometry" />
          </mxCell>
        </UserObject>
        <UserObject label="" tags="Background" id="NBB4tk9cv-uJ-knDmhPw-458">
          <mxCell style="vsdxID=442;fillColor=none;gradientColor=none;shape=stencil(XY9ZDoAgDERP039sj+ByDxNRGhEM4nZ7IY1x+ZvpvG5A5WLaWQOqJQY/6p27aIAqQGRndOCYFFANVPY+6CH41XXi5zaTWU1+yxMO6VO5A9UprlDiG0Etuxd6hzeMXziJZ0nP1sqN7/x/VCrJQ1Rf);strokeColor=#191919;spacingTop=-3;spacingBottom=-3;spacingLeft=-3;spacingRight=-3;points=[];labelBackgroundColor=none;rounded=0;html=1;whiteSpace=wrap;" parent="1" vertex="1">
            <mxGeometry x="1533" y="157" height="95" as="geometry" />
          </mxCell>
        </UserObject>
        <UserObject label="" tags="Background" id="NBB4tk9cv-uJ-knDmhPw-466">
          <mxCell style="vsdxID=449;fillColor=none;gradientColor=none;shape=stencil(fY9BEoMgDEVPkz0mR1C69A7MiCVTBAfRtrcXzMLWhbv/k5fkB6hdnJktoFpyii/75iE7oA4QOTibOBcFpIHaMSb7THENg/jZVLKqKW51w0fmetPXGVRf8Y1Sh38I7DncwPgPF3GeGdl7Sfnbv8YqJXmJ9A4=);strokeColor=#191919;spacingTop=-3;spacingBottom=-3;spacingLeft=-3;spacingRight=-3;points=[];labelBackgroundColor=none;rounded=0;html=1;whiteSpace=wrap;;flipV=1;" parent="1" vertex="1">
            <mxGeometry x="1290" y="586" height="20" as="geometry" />
          </mxCell>
        </UserObject>
        <UserObject label="" tags="Background" id="NBB4tk9cv-uJ-knDmhPw-471">
          <mxCell style="vsdxID=454;fillColor=none;gradientColor=none;shape=stencil(XY9ZDoAgDERP039sj+ByDxNRGhEM4nZ7IY1x+ZvpvG5A5WLaWQOqJQY/6p27aIAqQGRndOCYFFANVPY+6CH41XXi5zaTWU1+yxMO6VO5A9UprlDiG0Etuxd6hzeMXziJZ0nP1sqN7/x/VCrJQ1Rf);strokeColor=#191919;spacingTop=-3;spacingBottom=-3;spacingLeft=-3;spacingRight=-3;points=[];labelBackgroundColor=none;rounded=0;html=1;whiteSpace=wrap;" parent="1" vertex="1">
            <mxGeometry x="392" y="232" width="32" as="geometry" />
          </mxCell>
        </UserObject>
        <mxCell id="NBB4tk9cv-uJ-knDmhPw-670" value="" style="edgeStyle=orthogonalEdgeStyle;rounded=0;orthogonalLoop=1;jettySize=auto;html=1;movable=1;resizable=1;rotatable=1;deletable=1;editable=1;locked=0;connectable=1;" parent="1" source="NBB4tk9cv-uJ-knDmhPw-510" target="NBB4tk9cv-uJ-knDmhPw-665" edge="1">
          <mxGeometry relative="1" as="geometry" />
        </mxCell>
        <mxCell id="NBB4tk9cv-uJ-knDmhPw-510" value="1/8 Nipple 30mm&lt;br&gt;1/8M-F Elbow" style="shape=step;perimeter=stepPerimeter;whiteSpace=wrap;fixedSize=1;size=10;verticalAlign=middle;align=center;html=1;fontSize=8;movable=1;resizable=1;rotatable=1;deletable=1;editable=1;locked=0;connectable=1;" parent="1" vertex="1">
          <mxGeometry x="40" y="295" width="110" height="50" as="geometry" />
        </mxCell>
        <mxCell id="NBB4tk9cv-uJ-knDmhPw-522" style="edgeStyle=orthogonalEdgeStyle;rounded=0;orthogonalLoop=1;jettySize=auto;html=1;exitX=0.5;exitY=0;exitDx=0;exitDy=0;entryX=0.5;entryY=1;entryDx=0;entryDy=0;movable=1;resizable=1;rotatable=1;deletable=1;editable=1;locked=0;connectable=1;" parent="1" source="NBB4tk9cv-uJ-knDmhPw-515" target="NBB4tk9cv-uJ-knDmhPw-510" edge="1">
          <mxGeometry relative="1" as="geometry" />
        </mxCell>
        <mxCell id="NBB4tk9cv-uJ-knDmhPw-546" style="edgeStyle=orthogonalEdgeStyle;rounded=0;orthogonalLoop=1;jettySize=auto;html=1;exitX=0.5;exitY=0;exitDx=0;exitDy=0;entryX=0.5;entryY=1;entryDx=0;entryDy=0;movable=1;resizable=1;rotatable=1;deletable=1;editable=1;locked=0;connectable=1;" parent="1" source="NBB4tk9cv-uJ-knDmhPw-523" target="NBB4tk9cv-uJ-knDmhPw-515" edge="1">
          <mxGeometry relative="1" as="geometry" />
        </mxCell>
        <mxCell id="NBB4tk9cv-uJ-knDmhPw-523" value="1/4M - 1/8F Reducer" style="shape=step;perimeter=stepPerimeter;whiteSpace=wrap;fixedSize=1;size=10;verticalAlign=middle;align=center;html=1;fontSize=8;movable=1;resizable=1;rotatable=1;deletable=1;editable=1;locked=0;connectable=1;" parent="1" vertex="1">
          <mxGeometry x="40" y="465" width="110" height="50" as="geometry" />
        </mxCell>
        <mxCell id="NBB4tk9cv-uJ-knDmhPw-531" value="" style="edgeStyle=orthogonalEdgeStyle;rounded=0;orthogonalLoop=1;jettySize=auto;html=1;movable=1;resizable=1;rotatable=1;deletable=1;editable=1;locked=0;connectable=1;" parent="1" source="NBB4tk9cv-uJ-knDmhPw-526" target="NBB4tk9cv-uJ-knDmhPw-523" edge="1">
          <mxGeometry relative="1" as="geometry" />
        </mxCell>
        <mxCell id="NBB4tk9cv-uJ-knDmhPw-560" value="" style="group;flipV=1;movable=1;resizable=1;rotatable=1;deletable=1;editable=1;locked=0;connectable=1;" parent="1" vertex="1" connectable="0">
          <mxGeometry x="40" y="1050" width="110" height="70" as="geometry" />
        </mxCell>
        <mxCell id="NBB4tk9cv-uJ-knDmhPw-561" value="Mesh Filter" style="rounded=0;whiteSpace=wrap;html=1;movable=1;resizable=1;rotatable=1;deletable=1;editable=1;locked=0;connectable=1;" parent="NBB4tk9cv-uJ-knDmhPw-560" vertex="1">
          <mxGeometry width="110" height="70" as="geometry" />
        </mxCell>
        <mxCell id="NBB4tk9cv-uJ-knDmhPw-567" style="edgeStyle=orthogonalEdgeStyle;rounded=0;orthogonalLoop=1;jettySize=auto;html=1;exitX=0.5;exitY=0;exitDx=0;exitDy=0;entryX=0.5;entryY=1;entryDx=0;entryDy=0;movable=1;resizable=1;rotatable=1;deletable=1;editable=1;locked=0;connectable=1;" parent="1" source="NBB4tk9cv-uJ-knDmhPw-555" target="NBB4tk9cv-uJ-knDmhPw-549" edge="1">
          <mxGeometry relative="1" as="geometry" />
        </mxCell>
        <mxCell id="NBB4tk9cv-uJ-knDmhPw-568" value="" style="edgeStyle=orthogonalEdgeStyle;rounded=0;orthogonalLoop=1;jettySize=auto;html=1;entryX=0.5;entryY=1;entryDx=0;entryDy=0;movable=1;resizable=1;rotatable=1;deletable=1;editable=1;locked=0;connectable=1;" parent="1" source="NBB4tk9cv-uJ-knDmhPw-549" target="NBB4tk9cv-uJ-knDmhPw-526" edge="1">
          <mxGeometry relative="1" as="geometry">
            <mxPoint x="110" y="630" as="targetPoint" />
          </mxGeometry>
        </mxCell>
        <mxCell id="NBB4tk9cv-uJ-knDmhPw-572" value="" style="edgeStyle=orthogonalEdgeStyle;rounded=0;orthogonalLoop=1;jettySize=auto;html=1;movable=1;resizable=1;rotatable=1;deletable=1;editable=1;locked=0;connectable=1;" parent="1" source="NBB4tk9cv-uJ-knDmhPw-569" target="NBB4tk9cv-uJ-knDmhPw-555" edge="1">
          <mxGeometry relative="1" as="geometry" />
        </mxCell>
        <mxCell id="NBB4tk9cv-uJ-knDmhPw-569" value="9/6mm Silicone Tube" style="shape=step;perimeter=stepPerimeter;whiteSpace=wrap;fixedSize=1;size=10;verticalAlign=middle;align=center;html=1;fontSize=8;flipV=1;movable=1;resizable=1;rotatable=1;deletable=1;editable=1;locked=0;connectable=1;" parent="1" vertex="1">
          <mxGeometry x="40" y="975" width="110" height="50" as="geometry" />
        </mxCell>
        <mxCell id="NBB4tk9cv-uJ-knDmhPw-571" value="" style="edgeStyle=orthogonalEdgeStyle;rounded=0;orthogonalLoop=1;jettySize=auto;html=1;movable=1;resizable=1;rotatable=1;deletable=1;editable=1;locked=0;connectable=1;" parent="1" source="NBB4tk9cv-uJ-knDmhPw-561" target="NBB4tk9cv-uJ-knDmhPw-569" edge="1">
          <mxGeometry relative="1" as="geometry" />
        </mxCell>
        <mxCell id="NBB4tk9cv-uJ-knDmhPw-574" value="" style="edgeStyle=orthogonalEdgeStyle;rounded=0;orthogonalLoop=1;jettySize=auto;html=1;movable=1;resizable=1;rotatable=1;deletable=1;editable=1;locked=0;connectable=1;" parent="1" source="NBB4tk9cv-uJ-knDmhPw-573" target="NBB4tk9cv-uJ-knDmhPw-561" edge="1">
          <mxGeometry relative="1" as="geometry" />
        </mxCell>
        <mxCell id="NBB4tk9cv-uJ-knDmhPw-573" value="Reservoir" style="rounded=1;whiteSpace=wrap;html=1;arcSize=50;movable=1;resizable=1;rotatable=1;deletable=1;editable=1;locked=0;connectable=1;" parent="1" vertex="1">
          <mxGeometry x="40" y="1220" width="110" height="50" as="geometry" />
        </mxCell>
        <mxCell id="NBB4tk9cv-uJ-knDmhPw-578" value="" style="group;movable=1;resizable=1;rotatable=1;deletable=1;editable=1;locked=0;connectable=1;" parent="1" vertex="1" connectable="0">
          <mxGeometry x="40" y="880" width="110" height="70" as="geometry" />
        </mxCell>
        <mxCell id="NBB4tk9cv-uJ-knDmhPw-555" value="Pump" style="rounded=0;whiteSpace=wrap;html=1;container=0;flipV=1;movable=1;resizable=1;rotatable=1;deletable=1;editable=1;locked=0;connectable=1;" parent="NBB4tk9cv-uJ-knDmhPw-578" vertex="1">
          <mxGeometry width="110" height="70" as="geometry" />
        </mxCell>
        <mxCell id="NBB4tk9cv-uJ-knDmhPw-556" value="Barb" style="text;strokeColor=none;align=center;fillColor=none;html=1;verticalAlign=middle;whiteSpace=wrap;rounded=0;fontSize=8;container=0;movable=1;resizable=1;rotatable=1;deletable=1;editable=1;locked=0;connectable=1;" parent="NBB4tk9cv-uJ-knDmhPw-578" vertex="1">
          <mxGeometry x="10" y="60" width="90" height="10" as="geometry" />
        </mxCell>
        <mxCell id="NBB4tk9cv-uJ-knDmhPw-577" value="" style="group;movable=1;resizable=1;rotatable=1;deletable=1;editable=1;locked=0;connectable=1;" parent="1" vertex="1" connectable="0">
          <mxGeometry x="40" y="710" width="110" height="70" as="geometry" />
        </mxCell>
        <mxCell id="NBB4tk9cv-uJ-knDmhPw-579" value="" style="group;movable=1;resizable=1;rotatable=1;deletable=1;editable=1;locked=0;connectable=1;" parent="NBB4tk9cv-uJ-knDmhPw-577" vertex="1" connectable="0">
          <mxGeometry width="110" height="70" as="geometry" />
        </mxCell>
        <mxCell id="NBB4tk9cv-uJ-knDmhPw-549" value="Check Valve&lt;div&gt;(Built-in)&lt;/div&gt;" style="rounded=0;whiteSpace=wrap;html=1;movable=1;resizable=1;rotatable=1;deletable=1;editable=1;locked=0;connectable=1;" parent="NBB4tk9cv-uJ-knDmhPw-579" vertex="1">
          <mxGeometry width="110" height="70" as="geometry" />
        </mxCell>
        <mxCell id="NBB4tk9cv-uJ-knDmhPw-552" value="1/8F" style="text;strokeColor=none;align=center;fillColor=none;html=1;verticalAlign=middle;whiteSpace=wrap;rounded=0;fontSize=8;movable=1;resizable=1;rotatable=1;deletable=1;editable=1;locked=0;connectable=1;" parent="NBB4tk9cv-uJ-knDmhPw-579" vertex="1">
          <mxGeometry x="45" width="25" height="10" as="geometry" />
        </mxCell>
        <mxCell id="NBB4tk9cv-uJ-knDmhPw-580" value="" style="group;movable=1;resizable=1;rotatable=1;deletable=1;editable=1;locked=0;connectable=1;" parent="1" vertex="1" connectable="0">
          <mxGeometry x="40" y="540" width="110" height="70" as="geometry" />
        </mxCell>
        <mxCell id="NBB4tk9cv-uJ-knDmhPw-526" value="Pulsar" style="rounded=0;whiteSpace=wrap;html=1;container=0;movable=1;resizable=1;rotatable=1;deletable=1;editable=1;locked=0;connectable=1;" parent="NBB4tk9cv-uJ-knDmhPw-580" vertex="1">
          <mxGeometry width="110" height="70" as="geometry" />
        </mxCell>
        <mxCell id="NBB4tk9cv-uJ-knDmhPw-527" value="1/8M" style="text;strokeColor=none;align=center;fillColor=none;html=1;verticalAlign=middle;whiteSpace=wrap;rounded=0;fontSize=8;container=0;movable=1;resizable=1;rotatable=1;deletable=1;editable=1;locked=0;connectable=1;" parent="NBB4tk9cv-uJ-knDmhPw-580" vertex="1">
          <mxGeometry x="45" y="60" width="25" height="10" as="geometry" />
        </mxCell>
        <mxCell id="NBB4tk9cv-uJ-knDmhPw-529" value="1/8M" style="text;strokeColor=none;align=center;fillColor=none;html=1;verticalAlign=middle;whiteSpace=wrap;rounded=0;fontSize=8;container=0;movable=1;resizable=1;rotatable=1;deletable=1;editable=1;locked=0;connectable=1;" parent="NBB4tk9cv-uJ-knDmhPw-580" vertex="1">
          <mxGeometry x="45" width="25" height="10" as="geometry" />
        </mxCell>
        <mxCell id="NBB4tk9cv-uJ-knDmhPw-587" style="edgeStyle=orthogonalEdgeStyle;rounded=0;orthogonalLoop=1;jettySize=auto;html=1;entryX=0;entryY=0.5;entryDx=0;entryDy=0;exitX=1;exitY=0.5;exitDx=0;exitDy=0;" parent="1" source="NBB4tk9cv-uJ-knDmhPw-665" target="NBB4tk9cv-uJ-knDmhPw-582" edge="1">
          <mxGeometry relative="1" as="geometry">
            <mxPoint x="280" y="65.05405405405395" as="targetPoint" />
            <mxPoint x="170" y="50" as="sourcePoint" />
          </mxGeometry>
        </mxCell>
        <mxCell id="NBB4tk9cv-uJ-knDmhPw-618" style="edgeStyle=orthogonalEdgeStyle;rounded=0;orthogonalLoop=1;jettySize=auto;html=1;exitX=1;exitY=0.5;exitDx=0;exitDy=0;entryX=0;entryY=0.5;entryDx=0;entryDy=0;" parent="1" source="NBB4tk9cv-uJ-knDmhPw-607" target="NBB4tk9cv-uJ-knDmhPw-611" edge="1">
          <mxGeometry relative="1" as="geometry">
            <mxPoint x="510" y="160" as="targetPoint" />
          </mxGeometry>
        </mxCell>
        <mxCell id="NBB4tk9cv-uJ-knDmhPw-607" value="1/8M Elbow - Comp" style="shape=step;perimeter=stepPerimeter;whiteSpace=wrap;fixedSize=1;size=10;verticalAlign=middle;align=center;html=1;fontSize=8;" parent="1" vertex="1">
          <mxGeometry x="445" y="212.5" width="110" height="45" as="geometry" />
        </mxCell>
        <mxCell id="NBB4tk9cv-uJ-knDmhPw-609" value="" style="edgeStyle=orthogonalEdgeStyle;rounded=0;orthogonalLoop=1;jettySize=auto;html=1;entryX=0;entryY=0.5;entryDx=0;entryDy=0;" parent="1" source="NBB4tk9cv-uJ-knDmhPw-592" target="NBB4tk9cv-uJ-knDmhPw-607" edge="1">
          <mxGeometry relative="1" as="geometry" />
        </mxCell>
        <mxCell id="NBB4tk9cv-uJ-knDmhPw-610" value="" style="group" parent="1" vertex="1" connectable="0">
          <mxGeometry x="580" y="200" width="110" height="70" as="geometry" />
        </mxCell>
        <mxCell id="NBB4tk9cv-uJ-knDmhPw-611" value="Pre-Heat&lt;span style=&quot;background-color: transparent; color: light-dark(rgb(0, 0, 0), rgb(255, 255, 255));&quot;&gt;&amp;nbsp;Coil&lt;/span&gt;&lt;div&gt;&lt;span style=&quot;background-color: transparent; color: light-dark(rgb(0, 0, 0), rgb(255, 255, 255));&quot;&gt;6mm Copper Tube&lt;/span&gt;&lt;/div&gt;&lt;div&gt;&lt;span style=&quot;background-color: transparent; color: light-dark(rgb(0, 0, 0), rgb(255, 255, 255));&quot;&gt;(5-2/3 wraps brazed)&lt;/span&gt;&lt;/div&gt;" style="rounded=0;whiteSpace=wrap;html=1;fontSize=11;" parent="NBB4tk9cv-uJ-knDmhPw-610" vertex="1">
          <mxGeometry width="110" height="70" as="geometry" />
        </mxCell>
        <mxCell id="NBB4tk9cv-uJ-knDmhPw-619" value="" style="group" parent="1" vertex="1" connectable="0">
          <mxGeometry x="580" y="370" width="110" height="70" as="geometry" />
        </mxCell>
        <mxCell id="NBB4tk9cv-uJ-knDmhPw-620" value="Tee" style="rounded=0;whiteSpace=wrap;html=1;" parent="NBB4tk9cv-uJ-knDmhPw-619" vertex="1">
          <mxGeometry width="110" height="70" as="geometry" />
        </mxCell>
        <mxCell id="NBB4tk9cv-uJ-knDmhPw-622" value="Brazed" style="text;strokeColor=none;align=center;fillColor=none;html=1;verticalAlign=middle;whiteSpace=wrap;rounded=0;fontSize=8;rotation=-90;" parent="NBB4tk9cv-uJ-knDmhPw-619" vertex="1">
          <mxGeometry x="92.5" y="30" width="23" height="10" as="geometry" />
        </mxCell>
        <mxCell id="NBB4tk9cv-uJ-knDmhPw-623" value="Brazed" style="text;strokeColor=none;align=center;fillColor=none;html=1;verticalAlign=middle;whiteSpace=wrap;rounded=0;fontSize=8;" parent="NBB4tk9cv-uJ-knDmhPw-619" vertex="1">
          <mxGeometry x="43.5" y="1" width="23" height="10" as="geometry" />
        </mxCell>
        <mxCell id="NBB4tk9cv-uJ-knDmhPw-624" value="Brazed" style="text;strokeColor=none;align=center;fillColor=none;html=1;verticalAlign=middle;whiteSpace=wrap;rounded=0;fontSize=8;rotation=90;" parent="NBB4tk9cv-uJ-knDmhPw-619" vertex="1">
          <mxGeometry x="-6" y="30" width="23" height="10" as="geometry" />
        </mxCell>
        <mxCell id="NBB4tk9cv-uJ-knDmhPw-625" value="" style="edgeStyle=orthogonalEdgeStyle;rounded=0;orthogonalLoop=1;jettySize=auto;html=1;entryX=0.5;entryY=0;entryDx=0;entryDy=0;" parent="1" source="NBB4tk9cv-uJ-knDmhPw-611" target="NBB4tk9cv-uJ-knDmhPw-620" edge="1">
          <mxGeometry relative="1" as="geometry" />
        </mxCell>
        <mxCell id="NBB4tk9cv-uJ-knDmhPw-633" style="edgeStyle=orthogonalEdgeStyle;rounded=0;orthogonalLoop=1;jettySize=auto;html=1;exitX=0;exitY=0.5;exitDx=0;exitDy=0;entryX=1;entryY=0.5;entryDx=0;entryDy=0;" parent="1" source="NBB4tk9cv-uJ-knDmhPw-626" target="NBB4tk9cv-uJ-knDmhPw-629" edge="1">
          <mxGeometry relative="1" as="geometry" />
        </mxCell>
        <mxCell id="NBB4tk9cv-uJ-knDmhPw-626" value="6mm Copper Tube" style="shape=step;perimeter=stepPerimeter;whiteSpace=wrap;fixedSize=1;size=10;verticalAlign=middle;align=center;html=1;fontSize=8;" parent="1" vertex="1">
          <mxGeometry x="445" y="382.5" width="110" height="45" as="geometry" />
        </mxCell>
        <mxCell id="NBB4tk9cv-uJ-knDmhPw-627" value="" style="edgeStyle=orthogonalEdgeStyle;rounded=0;orthogonalLoop=1;jettySize=auto;html=1;" parent="1" source="NBB4tk9cv-uJ-knDmhPw-620" target="NBB4tk9cv-uJ-knDmhPw-626" edge="1">
          <mxGeometry relative="1" as="geometry" />
        </mxCell>
        <mxCell id="NBB4tk9cv-uJ-knDmhPw-647" style="edgeStyle=orthogonalEdgeStyle;rounded=0;orthogonalLoop=1;jettySize=auto;html=1;exitX=1;exitY=0.5;exitDx=0;exitDy=0;entryX=0;entryY=0.5;entryDx=0;entryDy=0;" parent="1" source="NBB4tk9cv-uJ-knDmhPw-634" target="NBB4tk9cv-uJ-knDmhPw-646" edge="1">
          <mxGeometry relative="1" as="geometry">
            <Array as="points">
              <mxPoint x="545" y="575" />
              <mxPoint x="545" y="1245" />
            </Array>
          </mxGeometry>
        </mxCell>
        <mxCell id="KgHm3Q5R35HV1HHAb_v0-8" value="OR" style="edgeLabel;html=1;align=center;verticalAlign=middle;resizable=0;points=[];" vertex="1" connectable="0" parent="NBB4tk9cv-uJ-knDmhPw-647">
          <mxGeometry x="-0.5197" y="-4" relative="1" as="geometry">
            <mxPoint y="1" as="offset" />
          </mxGeometry>
        </mxCell>
        <mxCell id="NBB4tk9cv-uJ-knDmhPw-646" value="Drip Tray" style="rounded=1;whiteSpace=wrap;html=1;arcSize=50;" parent="1" vertex="1">
          <mxGeometry x="580" y="1220" width="110" height="50" as="geometry" />
        </mxCell>
        <mxCell id="NBB4tk9cv-uJ-knDmhPw-657" style="edgeStyle=orthogonalEdgeStyle;rounded=0;orthogonalLoop=1;jettySize=auto;html=1;exitX=1;exitY=0.5;exitDx=0;exitDy=0;entryX=0;entryY=0.5;entryDx=0;entryDy=0;" parent="1" source="NBB4tk9cv-uJ-knDmhPw-648" target="NBB4tk9cv-uJ-knDmhPw-652" edge="1">
          <mxGeometry relative="1" as="geometry">
            <mxPoint x="1280" y="80" as="targetPoint" />
          </mxGeometry>
        </mxCell>
        <mxCell id="NBB4tk9cv-uJ-knDmhPw-648" value="&lt;div&gt;1/8M-M Elbow&lt;/div&gt;&lt;div&gt;1/8F-M Elbow&lt;/div&gt;" style="shape=step;perimeter=stepPerimeter;whiteSpace=wrap;fixedSize=1;size=10;verticalAlign=middle;align=center;html=1;fontSize=8;" parent="1" vertex="1">
          <mxGeometry x="715" y="40" width="110" height="50" as="geometry" />
        </mxCell>
        <mxCell id="NBB4tk9cv-uJ-knDmhPw-650" value="" style="edgeStyle=orthogonalEdgeStyle;rounded=0;orthogonalLoop=1;jettySize=auto;html=1;entryX=0;entryY=0.5;entryDx=0;entryDy=0;exitX=1;exitY=0.5;exitDx=0;exitDy=0;" parent="1" source="NBB4tk9cv-uJ-knDmhPw-659" target="NBB4tk9cv-uJ-knDmhPw-648" edge="1">
          <mxGeometry relative="1" as="geometry">
            <mxPoint x="690" y="50" as="sourcePoint" />
          </mxGeometry>
        </mxCell>
        <mxCell id="NBB4tk9cv-uJ-knDmhPw-651" value="" style="group" parent="1" vertex="1" connectable="0">
          <mxGeometry x="1390" y="30" width="110" height="120" as="geometry" />
        </mxCell>
        <mxCell id="MXy2113KjudVlhPQ59Rv-69" value="" style="edgeStyle=orthogonalEdgeStyle;rounded=0;orthogonalLoop=1;jettySize=auto;html=1;" parent="NBB4tk9cv-uJ-knDmhPw-651" source="NBB4tk9cv-uJ-knDmhPw-652" target="MXy2113KjudVlhPQ59Rv-67" edge="1">
          <mxGeometry relative="1" as="geometry" />
        </mxCell>
        <mxCell id="NBB4tk9cv-uJ-knDmhPw-652" value="Cold Water&lt;div&gt;&lt;span style=&quot;background-color: transparent; color: light-dark(rgb(0, 0, 0), rgb(255, 255, 255));&quot;&gt;Needle Valve&lt;/span&gt;&lt;/div&gt;" style="rounded=0;whiteSpace=wrap;html=1;" parent="NBB4tk9cv-uJ-knDmhPw-651" vertex="1">
          <mxGeometry width="110" height="70" as="geometry" />
        </mxCell>
        <mxCell id="NBB4tk9cv-uJ-knDmhPw-653" value="1/8F" style="text;strokeColor=none;align=center;fillColor=none;html=1;verticalAlign=middle;whiteSpace=wrap;rounded=0;fontSize=8;" parent="NBB4tk9cv-uJ-knDmhPw-651" vertex="1">
          <mxGeometry x="43.5" y="59" width="23" height="10" as="geometry" />
        </mxCell>
        <mxCell id="NBB4tk9cv-uJ-knDmhPw-656" value="1/8F" style="text;strokeColor=none;align=center;fillColor=none;html=1;verticalAlign=middle;whiteSpace=wrap;rounded=0;fontSize=8;rotation=90;" parent="NBB4tk9cv-uJ-knDmhPw-651" vertex="1">
          <mxGeometry x="-6" y="30" width="23" height="10" as="geometry" />
        </mxCell>
        <mxCell id="MXy2113KjudVlhPQ59Rv-67" value="&lt;div&gt;1/8M Elbow - Comp&lt;/div&gt;&lt;div&gt;6/4mm Copper Tube&lt;/div&gt;&lt;div&gt;Comp - 1/8M Elbow&lt;/div&gt;" style="shape=step;perimeter=stepPerimeter;whiteSpace=wrap;fixedSize=1;size=10;verticalAlign=middle;align=center;html=1;fontSize=8;" parent="NBB4tk9cv-uJ-knDmhPw-651" vertex="1">
          <mxGeometry y="95" width="110" height="50" as="geometry" />
        </mxCell>
        <mxCell id="NBB4tk9cv-uJ-knDmhPw-658" value="" style="group" parent="1" vertex="1" connectable="0">
          <mxGeometry x="580" y="30" width="110" height="70" as="geometry" />
        </mxCell>
        <mxCell id="NBB4tk9cv-uJ-knDmhPw-659" value="&lt;div&gt;Restrictor&lt;/div&gt;&lt;div&gt;0.6mm&lt;/div&gt;" style="rounded=0;whiteSpace=wrap;html=1;" parent="NBB4tk9cv-uJ-knDmhPw-658" vertex="1">
          <mxGeometry width="110" height="70" as="geometry" />
        </mxCell>
        <mxCell id="NBB4tk9cv-uJ-knDmhPw-661" value="1/8F" style="text;strokeColor=none;align=center;fillColor=none;html=1;verticalAlign=middle;whiteSpace=wrap;rounded=0;fontSize=8;rotation=-90;" parent="NBB4tk9cv-uJ-knDmhPw-658" vertex="1">
          <mxGeometry x="92.5" y="30" width="23" height="10" as="geometry" />
        </mxCell>
        <mxCell id="NBB4tk9cv-uJ-knDmhPw-663" value="1/8M" style="text;strokeColor=none;align=center;fillColor=none;html=1;verticalAlign=middle;whiteSpace=wrap;rounded=0;fontSize=8;rotation=90;" parent="NBB4tk9cv-uJ-knDmhPw-658" vertex="1">
          <mxGeometry x="-6" y="30" width="23" height="10" as="geometry" />
        </mxCell>
        <mxCell id="NBB4tk9cv-uJ-knDmhPw-664" value="" style="group;movable=1;resizable=1;rotatable=1;deletable=1;editable=1;locked=0;connectable=1;" parent="1" vertex="1" connectable="0">
          <mxGeometry x="40" y="30" width="110" height="70" as="geometry" />
        </mxCell>
        <mxCell id="NBB4tk9cv-uJ-knDmhPw-665" value="Flow Meter" style="rounded=0;whiteSpace=wrap;html=1;movable=1;resizable=1;rotatable=1;deletable=1;editable=1;locked=0;connectable=1;" parent="NBB4tk9cv-uJ-knDmhPw-664" vertex="1">
          <mxGeometry width="110" height="70" as="geometry" />
        </mxCell>
        <mxCell id="NBB4tk9cv-uJ-knDmhPw-666" value="1/8F" style="text;strokeColor=none;align=center;fillColor=none;html=1;verticalAlign=middle;whiteSpace=wrap;rounded=0;fontSize=8;movable=1;resizable=1;rotatable=1;deletable=1;editable=1;locked=0;connectable=1;" parent="NBB4tk9cv-uJ-knDmhPw-664" vertex="1">
          <mxGeometry x="45" y="60" width="25" height="10" as="geometry" />
        </mxCell>
        <mxCell id="NBB4tk9cv-uJ-knDmhPw-667" value="1/8F" style="text;strokeColor=none;align=center;fillColor=none;html=1;verticalAlign=middle;whiteSpace=wrap;rounded=0;fontSize=8;rotation=-90;movable=1;resizable=1;rotatable=1;deletable=1;editable=1;locked=0;connectable=1;" parent="NBB4tk9cv-uJ-knDmhPw-664" vertex="1">
          <mxGeometry x="95" y="30" width="25" height="10" as="geometry" />
        </mxCell>
        <mxCell id="NBB4tk9cv-uJ-knDmhPw-673" value="" style="edgeStyle=orthogonalEdgeStyle;rounded=0;orthogonalLoop=1;jettySize=auto;html=1;entryX=0;entryY=0.5;entryDx=0;entryDy=0;" parent="1" source="NBB4tk9cv-uJ-knDmhPw-582" target="NBB4tk9cv-uJ-knDmhPw-659" edge="1">
          <mxGeometry relative="1" as="geometry">
            <mxPoint x="535" y="65" as="targetPoint" />
          </mxGeometry>
        </mxCell>
        <mxCell id="NBB4tk9cv-uJ-knDmhPw-675" value="" style="group;movable=1;resizable=1;rotatable=1;deletable=1;editable=1;locked=0;connectable=1;" parent="1" vertex="1" connectable="0">
          <mxGeometry x="-230" y="1050" width="110" height="70" as="geometry" />
        </mxCell>
        <mxCell id="NBB4tk9cv-uJ-knDmhPw-676" value="Pressure&lt;div&gt;Regulator&lt;/div&gt;&lt;div&gt;(40 psi)&lt;/div&gt;" style="rounded=0;whiteSpace=wrap;html=1;movable=1;resizable=1;rotatable=1;deletable=1;editable=1;locked=0;connectable=1;" parent="NBB4tk9cv-uJ-knDmhPw-675" vertex="1">
          <mxGeometry width="110" height="70" as="geometry" />
        </mxCell>
        <mxCell id="MXy2113KjudVlhPQ59Rv-188" value="1/4FNPT" style="text;strokeColor=none;align=center;fillColor=none;html=1;verticalAlign=middle;whiteSpace=wrap;rounded=0;fontSize=8;" parent="NBB4tk9cv-uJ-knDmhPw-675" vertex="1">
          <mxGeometry x="43.5" y="57.5" width="23" height="10" as="geometry" />
        </mxCell>
        <mxCell id="MXy2113KjudVlhPQ59Rv-189" value="1/4FNPT" style="text;strokeColor=none;align=center;fillColor=none;html=1;verticalAlign=middle;whiteSpace=wrap;rounded=0;fontSize=8;" parent="NBB4tk9cv-uJ-knDmhPw-675" vertex="1">
          <mxGeometry x="43.5" y="1" width="23" height="10" as="geometry" />
        </mxCell>
        <mxCell id="NBB4tk9cv-uJ-knDmhPw-576" value="" style="group;movable=1;resizable=1;rotatable=1;deletable=1;editable=1;locked=0;connectable=1;" parent="1" vertex="1" connectable="0">
          <mxGeometry x="40" y="370" width="110" height="70" as="geometry" />
        </mxCell>
        <mxCell id="NBB4tk9cv-uJ-knDmhPw-515" value="OPV&lt;div&gt;(~14 bar)&lt;/div&gt;" style="rounded=0;whiteSpace=wrap;html=1;movable=1;resizable=1;rotatable=1;deletable=1;editable=1;locked=0;connectable=1;" parent="NBB4tk9cv-uJ-knDmhPw-576" vertex="1">
          <mxGeometry width="110" height="70" as="geometry" />
        </mxCell>
        <mxCell id="NBB4tk9cv-uJ-knDmhPw-516" value="1/4F" style="text;strokeColor=none;align=center;fillColor=none;html=1;verticalAlign=middle;whiteSpace=wrap;rounded=0;fontSize=8;movable=1;resizable=1;rotatable=1;deletable=1;editable=1;locked=0;connectable=1;" parent="NBB4tk9cv-uJ-knDmhPw-576" vertex="1">
          <mxGeometry x="45" y="60" width="25" height="10" as="geometry" />
        </mxCell>
        <mxCell id="NBB4tk9cv-uJ-knDmhPw-517" value="8mm Barb" style="text;strokeColor=none;align=center;fillColor=none;html=1;verticalAlign=middle;whiteSpace=wrap;rounded=0;fontSize=8;rotation=90;movable=1;resizable=1;rotatable=1;deletable=1;editable=1;locked=0;connectable=1;" parent="NBB4tk9cv-uJ-knDmhPw-576" vertex="1">
          <mxGeometry x="-20" y="30" width="55" height="10" as="geometry" />
        </mxCell>
        <mxCell id="NBB4tk9cv-uJ-knDmhPw-518" value="1/8F" style="text;strokeColor=none;align=center;fillColor=none;html=1;verticalAlign=middle;whiteSpace=wrap;rounded=0;fontSize=8;movable=1;resizable=1;rotatable=1;deletable=1;editable=1;locked=0;connectable=1;" parent="NBB4tk9cv-uJ-knDmhPw-576" vertex="1">
          <mxGeometry x="45" width="25" height="10" as="geometry" />
        </mxCell>
        <mxCell id="NBB4tk9cv-uJ-knDmhPw-684" value="" style="rounded=0;whiteSpace=wrap;html=1;fillColor=#60a917;fontColor=#ffffff;strokeColor=#2D7600;" parent="1" vertex="1">
          <mxGeometry x="1130" y="1355" width="160" height="100" as="geometry" />
        </mxCell>
        <mxCell id="NBB4tk9cv-uJ-knDmhPw-588" value="&lt;div&gt;1/8M-F Square Elbow&lt;/div&gt;&lt;div&gt;1/8M - Comp&lt;/div&gt;&lt;div&gt;6/4mm HDPE Tube&lt;/div&gt;&lt;div&gt;Comp - 1/8M&lt;/div&gt;" style="shape=step;perimeter=stepPerimeter;whiteSpace=wrap;fixedSize=1;size=10;verticalAlign=middle;align=center;html=1;fontSize=8;" parent="1" vertex="1">
          <mxGeometry x="310" y="127.5" width="110" height="45" as="geometry" />
        </mxCell>
        <mxCell id="NBB4tk9cv-uJ-knDmhPw-630" value="" style="group" parent="1" vertex="1" connectable="0">
          <mxGeometry x="310" y="200" width="110" height="70" as="geometry" />
        </mxCell>
        <mxCell id="NBB4tk9cv-uJ-knDmhPw-592" value="Check Valve&lt;div&gt;(CV1)&lt;/div&gt;" style="rounded=0;whiteSpace=wrap;html=1;" parent="NBB4tk9cv-uJ-knDmhPw-630" vertex="1">
          <mxGeometry width="110" height="70" as="geometry" />
        </mxCell>
        <mxCell id="NBB4tk9cv-uJ-knDmhPw-594" value="1/8F" style="text;strokeColor=none;align=center;fillColor=none;html=1;verticalAlign=middle;whiteSpace=wrap;rounded=0;fontSize=8;rotation=-90;" parent="NBB4tk9cv-uJ-knDmhPw-630" vertex="1">
          <mxGeometry x="92.5" y="30" width="23" height="10" as="geometry" />
        </mxCell>
        <mxCell id="NBB4tk9cv-uJ-knDmhPw-595" value="1/8F" style="text;strokeColor=none;align=center;fillColor=none;html=1;verticalAlign=middle;whiteSpace=wrap;rounded=0;fontSize=8;" parent="NBB4tk9cv-uJ-knDmhPw-630" vertex="1">
          <mxGeometry x="43.5" y="1" width="23" height="10" as="geometry" />
        </mxCell>
        <mxCell id="NBB4tk9cv-uJ-knDmhPw-632" value="" style="group" parent="1" vertex="1" connectable="0">
          <mxGeometry x="310" y="370" width="110" height="75" as="geometry" />
        </mxCell>
        <mxCell id="NBB4tk9cv-uJ-knDmhPw-629" value="Brew&lt;div&gt;Boiler&lt;/div&gt;" style="shape=hexagon;perimeter=hexagonPerimeter2;whiteSpace=wrap;html=1;fixedSize=1;" parent="NBB4tk9cv-uJ-knDmhPw-632" vertex="1">
          <mxGeometry width="110" height="70" as="geometry" />
        </mxCell>
        <mxCell id="NBB4tk9cv-uJ-knDmhPw-631" value="Brazed" style="text;strokeColor=none;align=center;fillColor=none;html=1;verticalAlign=middle;whiteSpace=wrap;rounded=0;fontSize=8;rotation=-90;" parent="NBB4tk9cv-uJ-knDmhPw-632" vertex="1">
          <mxGeometry x="86" y="30" width="23" height="10" as="geometry" />
        </mxCell>
        <mxCell id="KgHm3Q5R35HV1HHAb_v0-1" style="edgeStyle=orthogonalEdgeStyle;rounded=0;orthogonalLoop=1;jettySize=auto;html=1;exitX=0.5;exitY=1;exitDx=0;exitDy=0;entryX=1;entryY=0.5;entryDx=0;entryDy=0;" edge="1" parent="1" source="KgHm3Q5R35HV1HHAb_v0-5" target="NBB4tk9cv-uJ-knDmhPw-573">
          <mxGeometry relative="1" as="geometry" />
        </mxCell>
        <mxCell id="KgHm3Q5R35HV1HHAb_v0-7" value="OR" style="edgeLabel;html=1;align=center;verticalAlign=middle;resizable=0;points=[];" vertex="1" connectable="0" parent="KgHm3Q5R35HV1HHAb_v0-1">
          <mxGeometry x="-0.875" y="1" relative="1" as="geometry">
            <mxPoint as="offset" />
          </mxGeometry>
        </mxCell>
        <mxCell id="NBB4tk9cv-uJ-knDmhPw-634" value="&lt;div&gt;Brew&lt;/div&gt;&lt;div&gt;Solenoid&lt;/div&gt;&lt;div&gt;3-way&lt;/div&gt;" style="rhombus;whiteSpace=wrap;html=1;" parent="1" vertex="1">
          <mxGeometry x="310" y="540" width="110" height="70" as="geometry" />
        </mxCell>
        <mxCell id="NBB4tk9cv-uJ-knDmhPw-637" value="" style="group" parent="1" vertex="1" connectable="0">
          <mxGeometry x="309" y="710" width="110" height="70" as="geometry" />
        </mxCell>
        <mxCell id="NBB4tk9cv-uJ-knDmhPw-638" value="Group Head" style="rounded=0;whiteSpace=wrap;html=1;" parent="NBB4tk9cv-uJ-knDmhPw-637" vertex="1">
          <mxGeometry width="110" height="70" as="geometry" />
        </mxCell>
        <mxCell id="NBB4tk9cv-uJ-knDmhPw-643" value="Portafilter" style="rounded=1;whiteSpace=wrap;html=1;arcSize=50;" parent="1" vertex="1">
          <mxGeometry x="310" y="1220" width="110" height="50" as="geometry" />
        </mxCell>
        <mxCell id="NBB4tk9cv-uJ-knDmhPw-687" value="" style="group" parent="1" vertex="1" connectable="0">
          <mxGeometry x="310" y="30" width="110" height="70" as="geometry" />
        </mxCell>
        <mxCell id="NBB4tk9cv-uJ-knDmhPw-582" value="Tee" style="rounded=0;whiteSpace=wrap;html=1;container=0;" parent="NBB4tk9cv-uJ-knDmhPw-687" vertex="1">
          <mxGeometry width="110" height="70" as="geometry" />
        </mxCell>
        <mxCell id="NBB4tk9cv-uJ-knDmhPw-583" value="1/8F" style="text;strokeColor=none;align=center;fillColor=none;html=1;verticalAlign=middle;whiteSpace=wrap;rounded=0;fontSize=8;container=0;" parent="NBB4tk9cv-uJ-knDmhPw-687" vertex="1">
          <mxGeometry x="43.5" y="59" width="23" height="10" as="geometry" />
        </mxCell>
        <mxCell id="NBB4tk9cv-uJ-knDmhPw-584" value="1/8F" style="text;strokeColor=none;align=center;fillColor=none;html=1;verticalAlign=middle;whiteSpace=wrap;rounded=0;fontSize=8;rotation=-90;container=0;" parent="NBB4tk9cv-uJ-knDmhPw-687" vertex="1">
          <mxGeometry x="92.5" y="30" width="23" height="10" as="geometry" />
        </mxCell>
        <mxCell id="NBB4tk9cv-uJ-knDmhPw-586" value="1/8M" style="text;strokeColor=none;align=center;fillColor=none;html=1;verticalAlign=middle;whiteSpace=wrap;rounded=0;fontSize=8;rotation=90;container=0;" parent="NBB4tk9cv-uJ-knDmhPw-687" vertex="1">
          <mxGeometry x="-6" y="30" width="23" height="10" as="geometry" />
        </mxCell>
        <mxCell id="NBB4tk9cv-uJ-knDmhPw-599" style="edgeStyle=orthogonalEdgeStyle;rounded=0;orthogonalLoop=1;jettySize=auto;html=1;exitX=0.5;exitY=1;exitDx=0;exitDy=0;entryX=0.5;entryY=0;entryDx=0;entryDy=0;" parent="1" source="NBB4tk9cv-uJ-knDmhPw-588" target="NBB4tk9cv-uJ-knDmhPw-592" edge="1">
          <mxGeometry relative="1" as="geometry" />
        </mxCell>
        <mxCell id="NBB4tk9cv-uJ-knDmhPw-635" style="edgeStyle=orthogonalEdgeStyle;rounded=0;orthogonalLoop=1;jettySize=auto;html=1;exitX=0.5;exitY=1;exitDx=0;exitDy=0;entryX=0.5;entryY=0;entryDx=0;entryDy=0;" parent="1" source="NBB4tk9cv-uJ-knDmhPw-629" target="NBB4tk9cv-uJ-knDmhPw-634" edge="1">
          <mxGeometry relative="1" as="geometry" />
        </mxCell>
        <mxCell id="NBB4tk9cv-uJ-knDmhPw-645" value="" style="edgeStyle=orthogonalEdgeStyle;rounded=0;orthogonalLoop=1;jettySize=auto;html=1;" parent="1" source="NBB4tk9cv-uJ-knDmhPw-634" target="NBB4tk9cv-uJ-knDmhPw-638" edge="1">
          <mxGeometry relative="1" as="geometry" />
        </mxCell>
        <mxCell id="NBB4tk9cv-uJ-knDmhPw-644" value="" style="edgeStyle=orthogonalEdgeStyle;rounded=0;orthogonalLoop=1;jettySize=auto;html=1;" parent="1" source="NBB4tk9cv-uJ-knDmhPw-638" target="NBB4tk9cv-uJ-knDmhPw-643" edge="1">
          <mxGeometry relative="1" as="geometry">
            <Array as="points">
              <mxPoint x="365" y="1015" />
              <mxPoint x="365" y="1015" />
            </Array>
          </mxGeometry>
        </mxCell>
        <mxCell id="NBB4tk9cv-uJ-knDmhPw-590" value="" style="edgeStyle=orthogonalEdgeStyle;rounded=0;orthogonalLoop=1;jettySize=auto;html=1;" parent="1" source="NBB4tk9cv-uJ-knDmhPw-582" target="NBB4tk9cv-uJ-knDmhPw-588" edge="1">
          <mxGeometry relative="1" as="geometry" />
        </mxCell>
        <mxCell id="NBB4tk9cv-uJ-knDmhPw-692" value="" style="group" parent="1" vertex="1" connectable="0">
          <mxGeometry x="580" y="550" width="110" height="50" as="geometry" />
        </mxCell>
        <mxCell id="NBB4tk9cv-uJ-knDmhPw-690" value="Anti-Vacuum&lt;div&gt;Valve&lt;/div&gt;" style="rounded=1;whiteSpace=wrap;html=1;arcSize=50;" parent="NBB4tk9cv-uJ-knDmhPw-692" vertex="1">
          <mxGeometry width="110" height="50" as="geometry" />
        </mxCell>
        <mxCell id="NBB4tk9cv-uJ-knDmhPw-691" value="1/4M" style="text;strokeColor=none;align=center;fillColor=none;html=1;verticalAlign=middle;whiteSpace=wrap;rounded=0;fontSize=8;movable=1;resizable=1;rotatable=1;deletable=1;editable=1;locked=0;connectable=1;" parent="NBB4tk9cv-uJ-knDmhPw-692" vertex="1">
          <mxGeometry x="42.5" y="39" width="25" height="10" as="geometry" />
        </mxCell>
        <mxCell id="MXy2113KjudVlhPQ59Rv-10" style="edgeStyle=orthogonalEdgeStyle;rounded=0;orthogonalLoop=1;jettySize=auto;html=1;exitX=1;exitY=0.5;exitDx=0;exitDy=0;entryX=0;entryY=0.5;entryDx=0;entryDy=0;" parent="1" source="MXy2113KjudVlhPQ59Rv-6" target="MXy2113KjudVlhPQ59Rv-1" edge="1">
          <mxGeometry relative="1" as="geometry" />
        </mxCell>
        <mxCell id="MXy2113KjudVlhPQ59Rv-6" value="&lt;div&gt;6mm Copper Tube&lt;/div&gt;&lt;div&gt;Comp - 1/8M&lt;/div&gt;" style="shape=step;perimeter=stepPerimeter;whiteSpace=wrap;fixedSize=1;size=10;verticalAlign=middle;align=center;html=1;fontSize=8;" parent="1" vertex="1">
          <mxGeometry x="715" y="382.5" width="110" height="45" as="geometry" />
        </mxCell>
        <mxCell id="MXy2113KjudVlhPQ59Rv-7" value="" style="edgeStyle=orthogonalEdgeStyle;rounded=0;orthogonalLoop=1;jettySize=auto;html=1;" parent="1" source="NBB4tk9cv-uJ-knDmhPw-620" target="MXy2113KjudVlhPQ59Rv-6" edge="1">
          <mxGeometry relative="1" as="geometry" />
        </mxCell>
        <mxCell id="MXy2113KjudVlhPQ59Rv-73" style="edgeStyle=orthogonalEdgeStyle;rounded=0;orthogonalLoop=1;jettySize=auto;html=1;exitX=0.5;exitY=1;exitDx=0;exitDy=0;entryX=0.5;entryY=0;entryDx=0;entryDy=0;" parent="1" source="MXy2113KjudVlhPQ59Rv-16" target="MXy2113KjudVlhPQ59Rv-12" edge="1">
          <mxGeometry relative="1" as="geometry" />
        </mxCell>
        <mxCell id="MXy2113KjudVlhPQ59Rv-16" value="&lt;div&gt;1/8M Elbow - Comp&lt;/div&gt;&lt;div&gt;6mm Copper Tube&lt;/div&gt;&lt;div&gt;Comp - 1/8M&lt;/div&gt;" style="shape=step;perimeter=stepPerimeter;whiteSpace=wrap;fixedSize=1;size=10;verticalAlign=middle;align=center;html=1;fontSize=8;" parent="1" vertex="1">
          <mxGeometry x="850" y="465" width="110" height="45" as="geometry" />
        </mxCell>
        <mxCell id="MXy2113KjudVlhPQ59Rv-18" value="" style="edgeStyle=orthogonalEdgeStyle;rounded=0;orthogonalLoop=1;jettySize=auto;html=1;" parent="1" source="MXy2113KjudVlhPQ59Rv-1" target="MXy2113KjudVlhPQ59Rv-16" edge="1">
          <mxGeometry relative="1" as="geometry" />
        </mxCell>
        <mxCell id="MXy2113KjudVlhPQ59Rv-23" value="" style="group" parent="1" vertex="1" connectable="0">
          <mxGeometry x="580" y="710" width="110" height="70" as="geometry" />
        </mxCell>
        <mxCell id="MXy2113KjudVlhPQ59Rv-24" value="Tee" style="rounded=0;whiteSpace=wrap;html=1;" parent="MXy2113KjudVlhPQ59Rv-23" vertex="1">
          <mxGeometry width="110" height="70" as="geometry" />
        </mxCell>
        <mxCell id="MXy2113KjudVlhPQ59Rv-25" value="1/4F" style="text;strokeColor=none;align=center;fillColor=none;html=1;verticalAlign=middle;whiteSpace=wrap;rounded=0;fontSize=8;" parent="MXy2113KjudVlhPQ59Rv-23" vertex="1">
          <mxGeometry x="43.5" y="59" width="23" height="10" as="geometry" />
        </mxCell>
        <mxCell id="MXy2113KjudVlhPQ59Rv-26" value="1/4M" style="text;strokeColor=none;align=center;fillColor=none;html=1;verticalAlign=middle;whiteSpace=wrap;rounded=0;fontSize=8;rotation=-90;" parent="MXy2113KjudVlhPQ59Rv-23" vertex="1">
          <mxGeometry x="92.5" y="30" width="23" height="10" as="geometry" />
        </mxCell>
        <mxCell id="MXy2113KjudVlhPQ59Rv-27" value="1/4F" style="text;strokeColor=none;align=center;fillColor=none;html=1;verticalAlign=middle;whiteSpace=wrap;rounded=0;fontSize=8;" parent="MXy2113KjudVlhPQ59Rv-23" vertex="1">
          <mxGeometry x="43.5" y="1" width="23" height="10" as="geometry" />
        </mxCell>
        <mxCell id="MXy2113KjudVlhPQ59Rv-29" value="" style="group" parent="1" vertex="1" connectable="0">
          <mxGeometry x="580" y="880" width="110" height="70" as="geometry" />
        </mxCell>
        <mxCell id="MXy2113KjudVlhPQ59Rv-30" value="PRV&lt;div&gt;2 bar&lt;/div&gt;" style="rounded=0;whiteSpace=wrap;html=1;" parent="MXy2113KjudVlhPQ59Rv-29" vertex="1">
          <mxGeometry width="110" height="70" as="geometry" />
        </mxCell>
        <mxCell id="MXy2113KjudVlhPQ59Rv-31" value="8mm Barb" style="text;strokeColor=none;align=center;fillColor=none;html=1;verticalAlign=middle;whiteSpace=wrap;rounded=0;fontSize=8;" parent="MXy2113KjudVlhPQ59Rv-29" vertex="1">
          <mxGeometry x="15" y="59" width="80" height="10" as="geometry" />
        </mxCell>
        <mxCell id="MXy2113KjudVlhPQ59Rv-33" value="1/8M" style="text;strokeColor=none;align=center;fillColor=none;html=1;verticalAlign=middle;whiteSpace=wrap;rounded=0;fontSize=8;" parent="MXy2113KjudVlhPQ59Rv-29" vertex="1">
          <mxGeometry x="43.5" y="1" width="23" height="10" as="geometry" />
        </mxCell>
        <mxCell id="MXy2113KjudVlhPQ59Rv-35" value="" style="edgeStyle=orthogonalEdgeStyle;rounded=0;orthogonalLoop=1;jettySize=auto;html=1;" parent="1" source="MXy2113KjudVlhPQ59Rv-24" target="NBB4tk9cv-uJ-knDmhPw-691" edge="1">
          <mxGeometry relative="1" as="geometry" />
        </mxCell>
        <mxCell id="MXy2113KjudVlhPQ59Rv-40" style="edgeStyle=orthogonalEdgeStyle;rounded=0;orthogonalLoop=1;jettySize=auto;html=1;exitX=0.5;exitY=1;exitDx=0;exitDy=0;entryX=0.5;entryY=0;entryDx=0;entryDy=0;" parent="1" source="MXy2113KjudVlhPQ59Rv-36" target="MXy2113KjudVlhPQ59Rv-30" edge="1">
          <mxGeometry relative="1" as="geometry" />
        </mxCell>
        <mxCell id="MXy2113KjudVlhPQ59Rv-36" value="1/4M - 1/8F Reducer" style="shape=step;perimeter=stepPerimeter;whiteSpace=wrap;fixedSize=1;size=10;verticalAlign=middle;align=center;html=1;fontSize=8;" parent="1" vertex="1">
          <mxGeometry x="580" y="807" width="110" height="45" as="geometry" />
        </mxCell>
        <mxCell id="MXy2113KjudVlhPQ59Rv-42" style="edgeStyle=orthogonalEdgeStyle;rounded=0;orthogonalLoop=1;jettySize=auto;html=1;exitX=0.5;exitY=1;exitDx=0;exitDy=0;entryX=0.5;entryY=0;entryDx=0;entryDy=0;" parent="1" source="MXy2113KjudVlhPQ59Rv-37" target="NBB4tk9cv-uJ-knDmhPw-646" edge="1">
          <mxGeometry relative="1" as="geometry" />
        </mxCell>
        <mxCell id="KgHm3Q5R35HV1HHAb_v0-4" value="OR" style="edgeLabel;html=1;align=center;verticalAlign=middle;resizable=0;points=[];" vertex="1" connectable="0" parent="MXy2113KjudVlhPQ59Rv-42">
          <mxGeometry x="-0.7992" y="-3" relative="1" as="geometry">
            <mxPoint x="3" y="4" as="offset" />
          </mxGeometry>
        </mxCell>
        <mxCell id="KgHm3Q5R35HV1HHAb_v0-2" style="edgeStyle=orthogonalEdgeStyle;rounded=0;orthogonalLoop=1;jettySize=auto;html=1;exitX=0.25;exitY=1;exitDx=0;exitDy=0;" edge="1" parent="1" source="MXy2113KjudVlhPQ59Rv-37">
          <mxGeometry relative="1" as="geometry">
            <mxPoint x="231" y="1085" as="targetPoint" />
            <Array as="points">
              <mxPoint x="608" y="1085" />
            </Array>
          </mxGeometry>
        </mxCell>
        <mxCell id="KgHm3Q5R35HV1HHAb_v0-3" value="OR" style="edgeLabel;html=1;align=center;verticalAlign=middle;resizable=0;points=[];" vertex="1" connectable="0" parent="KgHm3Q5R35HV1HHAb_v0-2">
          <mxGeometry x="-0.8951" y="-2" relative="1" as="geometry">
            <mxPoint as="offset" />
          </mxGeometry>
        </mxCell>
        <mxCell id="MXy2113KjudVlhPQ59Rv-37" value="9/6mm Silicone Tube" style="shape=step;perimeter=stepPerimeter;whiteSpace=wrap;fixedSize=1;size=10;verticalAlign=middle;align=center;html=1;fontSize=8;" parent="1" vertex="1">
          <mxGeometry x="580" y="975" width="110" height="45" as="geometry" />
        </mxCell>
        <mxCell id="MXy2113KjudVlhPQ59Rv-38" value="" style="edgeStyle=orthogonalEdgeStyle;rounded=0;orthogonalLoop=1;jettySize=auto;html=1;" parent="1" source="MXy2113KjudVlhPQ59Rv-24" target="MXy2113KjudVlhPQ59Rv-36" edge="1">
          <mxGeometry relative="1" as="geometry" />
        </mxCell>
        <mxCell id="MXy2113KjudVlhPQ59Rv-41" value="" style="edgeStyle=orthogonalEdgeStyle;rounded=0;orthogonalLoop=1;jettySize=auto;html=1;" parent="1" source="MXy2113KjudVlhPQ59Rv-30" target="MXy2113KjudVlhPQ59Rv-37" edge="1">
          <mxGeometry relative="1" as="geometry" />
        </mxCell>
        <mxCell id="MXy2113KjudVlhPQ59Rv-43" value="Steam Wand" style="rounded=1;whiteSpace=wrap;html=1;arcSize=50;" parent="1" vertex="1">
          <mxGeometry x="850" y="1220" width="110" height="50" as="geometry" />
        </mxCell>
        <mxCell id="MXy2113KjudVlhPQ59Rv-51" value="" style="group" parent="1" vertex="1" connectable="0">
          <mxGeometry x="850" y="1050" width="110" height="70" as="geometry" />
        </mxCell>
        <mxCell id="MXy2113KjudVlhPQ59Rv-52" value="Steam Flow&lt;div&gt;Control Valve&lt;/div&gt;" style="rounded=0;whiteSpace=wrap;html=1;" parent="MXy2113KjudVlhPQ59Rv-51" vertex="1">
          <mxGeometry width="110" height="70" as="geometry" />
        </mxCell>
        <mxCell id="MXy2113KjudVlhPQ59Rv-55" value="1/4M" style="text;strokeColor=none;align=center;fillColor=none;html=1;verticalAlign=middle;whiteSpace=wrap;rounded=0;fontSize=8;" parent="MXy2113KjudVlhPQ59Rv-51" vertex="1">
          <mxGeometry x="43.5" y="1" width="23" height="10" as="geometry" />
        </mxCell>
        <mxCell id="MXy2113KjudVlhPQ59Rv-57" value="" style="edgeStyle=orthogonalEdgeStyle;rounded=0;orthogonalLoop=1;jettySize=auto;html=1;" parent="1" source="MXy2113KjudVlhPQ59Rv-52" target="MXy2113KjudVlhPQ59Rv-43" edge="1">
          <mxGeometry relative="1" as="geometry" />
        </mxCell>
        <mxCell id="MXy2113KjudVlhPQ59Rv-58" value="" style="group" parent="1" vertex="1" connectable="0">
          <mxGeometry x="850" y="880" width="120" height="70" as="geometry" />
        </mxCell>
        <mxCell id="MXy2113KjudVlhPQ59Rv-59" value="Tee" style="rounded=0;whiteSpace=wrap;html=1;" parent="MXy2113KjudVlhPQ59Rv-58" vertex="1">
          <mxGeometry width="110" height="70" as="geometry" />
        </mxCell>
        <mxCell id="MXy2113KjudVlhPQ59Rv-60" value="1/4F" style="text;strokeColor=none;align=center;fillColor=none;html=1;verticalAlign=middle;whiteSpace=wrap;rounded=0;fontSize=8;" parent="MXy2113KjudVlhPQ59Rv-58" vertex="1">
          <mxGeometry x="43.5" y="59" width="23" height="10" as="geometry" />
        </mxCell>
        <mxCell id="MXy2113KjudVlhPQ59Rv-61" value="1/4M" style="text;strokeColor=none;align=center;fillColor=none;html=1;verticalAlign=middle;whiteSpace=wrap;rounded=0;fontSize=8;rotation=-90;" parent="MXy2113KjudVlhPQ59Rv-58" vertex="1">
          <mxGeometry x="92.5" y="30" width="23" height="10" as="geometry" />
        </mxCell>
        <mxCell id="MXy2113KjudVlhPQ59Rv-62" value="1/4M" style="text;strokeColor=none;align=center;fillColor=none;html=1;verticalAlign=middle;whiteSpace=wrap;rounded=0;fontSize=8;" parent="MXy2113KjudVlhPQ59Rv-58" vertex="1">
          <mxGeometry x="43.5" y="1" width="23" height="10" as="geometry" />
        </mxCell>
        <mxCell id="MXy2113KjudVlhPQ59Rv-65" value="" style="edgeStyle=orthogonalEdgeStyle;rounded=0;orthogonalLoop=1;jettySize=auto;html=1;" parent="1" source="MXy2113KjudVlhPQ59Rv-64" target="MXy2113KjudVlhPQ59Rv-55" edge="1">
          <mxGeometry relative="1" as="geometry" />
        </mxCell>
        <mxCell id="MXy2113KjudVlhPQ59Rv-64" value="&lt;div&gt;1/4M - Comp&lt;/div&gt;&lt;div&gt;6mm Copper Tube&lt;/div&gt;&lt;div&gt;Comp - 1/4F&lt;/div&gt;" style="shape=step;perimeter=stepPerimeter;whiteSpace=wrap;fixedSize=1;size=10;verticalAlign=middle;align=center;html=1;fontSize=8;" parent="1" vertex="1">
          <mxGeometry x="850" y="975" width="110" height="45" as="geometry" />
        </mxCell>
        <mxCell id="MXy2113KjudVlhPQ59Rv-66" value="" style="edgeStyle=orthogonalEdgeStyle;rounded=0;orthogonalLoop=1;jettySize=auto;html=1;" parent="1" source="MXy2113KjudVlhPQ59Rv-59" target="MXy2113KjudVlhPQ59Rv-64" edge="1">
          <mxGeometry relative="1" as="geometry" />
        </mxCell>
        <mxCell id="MXy2113KjudVlhPQ59Rv-71" value="" style="group" parent="1" vertex="1" connectable="0">
          <mxGeometry x="850" y="540" width="110" height="70" as="geometry" />
        </mxCell>
        <mxCell id="MXy2113KjudVlhPQ59Rv-12" value="Check Valve&lt;div&gt;(CV2)&lt;/div&gt;" style="rounded=0;whiteSpace=wrap;html=1;container=0;movable=1;resizable=1;rotatable=1;deletable=1;editable=1;locked=0;connectable=1;" parent="MXy2113KjudVlhPQ59Rv-71" vertex="1">
          <mxGeometry width="110" height="70" as="geometry" />
        </mxCell>
        <mxCell id="MXy2113KjudVlhPQ59Rv-13" value="1/8F" style="text;strokeColor=none;align=center;fillColor=none;html=1;verticalAlign=middle;whiteSpace=wrap;rounded=0;fontSize=8;container=0;movable=1;resizable=1;rotatable=1;deletable=1;editable=1;locked=0;connectable=1;" parent="MXy2113KjudVlhPQ59Rv-71" vertex="1">
          <mxGeometry x="45" y="60" width="25" height="10" as="geometry" />
        </mxCell>
        <mxCell id="MXy2113KjudVlhPQ59Rv-70" value="1/8F" style="text;strokeColor=none;align=center;fillColor=none;html=1;verticalAlign=middle;whiteSpace=wrap;rounded=0;fontSize=8;container=0;movable=1;resizable=1;rotatable=1;deletable=1;editable=1;locked=0;connectable=1;" parent="MXy2113KjudVlhPQ59Rv-71" vertex="1">
          <mxGeometry x="42.5" width="25" height="10" as="geometry" />
        </mxCell>
        <mxCell id="MXy2113KjudVlhPQ59Rv-80" style="edgeStyle=orthogonalEdgeStyle;rounded=0;orthogonalLoop=1;jettySize=auto;html=1;exitX=0.5;exitY=1;exitDx=0;exitDy=0;entryX=0.5;entryY=0;entryDx=0;entryDy=0;" parent="1" source="MXy2113KjudVlhPQ59Rv-78" target="MXy2113KjudVlhPQ59Rv-76" edge="1">
          <mxGeometry relative="1" as="geometry" />
        </mxCell>
        <mxCell id="MXy2113KjudVlhPQ59Rv-78" value="&lt;div&gt;1/8M - Comp&lt;/div&gt;&lt;div&gt;6mm Copper Tube&lt;/div&gt;&lt;div&gt;Comp - 1/8M Elbow&lt;/div&gt;&lt;div&gt;1/4M - 1/8F Reducer&lt;/div&gt;" style="shape=step;perimeter=stepPerimeter;whiteSpace=wrap;fixedSize=1;size=10;verticalAlign=middle;align=center;html=1;fontSize=8;" parent="1" vertex="1">
          <mxGeometry x="850" y="635" width="110" height="45" as="geometry" />
        </mxCell>
        <mxCell id="MXy2113KjudVlhPQ59Rv-79" style="edgeStyle=orthogonalEdgeStyle;rounded=0;orthogonalLoop=1;jettySize=auto;html=1;exitX=0.5;exitY=1;exitDx=0;exitDy=0;entryX=0.5;entryY=0;entryDx=0;entryDy=0;" parent="1" source="MXy2113KjudVlhPQ59Rv-12" target="MXy2113KjudVlhPQ59Rv-78" edge="1">
          <mxGeometry relative="1" as="geometry" />
        </mxCell>
        <mxCell id="MXy2113KjudVlhPQ59Rv-85" value="" style="edgeStyle=orthogonalEdgeStyle;rounded=0;orthogonalLoop=1;jettySize=auto;html=1;entryX=0.5;entryY=0;entryDx=0;entryDy=0;" parent="1" source="MXy2113KjudVlhPQ59Rv-76" target="MXy2113KjudVlhPQ59Rv-59" edge="1">
          <mxGeometry relative="1" as="geometry">
            <mxPoint x="930" y="870" as="targetPoint" />
          </mxGeometry>
        </mxCell>
        <mxCell id="MXy2113KjudVlhPQ59Rv-88" value="" style="edgeStyle=orthogonalEdgeStyle;rounded=0;orthogonalLoop=1;jettySize=auto;html=1;entryX=1;entryY=0.5;entryDx=0;entryDy=0;" parent="1" source="MXy2113KjudVlhPQ59Rv-76" target="MXy2113KjudVlhPQ59Rv-24" edge="1">
          <mxGeometry relative="1" as="geometry">
            <mxPoint x="715" y="742.4999999999998" as="targetPoint" />
          </mxGeometry>
        </mxCell>
        <mxCell id="MXy2113KjudVlhPQ59Rv-103" style="edgeStyle=orthogonalEdgeStyle;rounded=0;orthogonalLoop=1;jettySize=auto;html=1;exitX=1;exitY=0.5;exitDx=0;exitDy=0;entryX=0;entryY=0.5;entryDx=0;entryDy=0;" parent="1" source="MXy2113KjudVlhPQ59Rv-94" target="MXy2113KjudVlhPQ59Rv-98" edge="1">
          <mxGeometry relative="1" as="geometry" />
        </mxCell>
        <mxCell id="MXy2113KjudVlhPQ59Rv-94" value="1/4M - 1/8F Reducer" style="shape=step;perimeter=stepPerimeter;whiteSpace=wrap;fixedSize=1;size=10;verticalAlign=middle;align=center;html=1;fontSize=8;" parent="1" vertex="1">
          <mxGeometry x="985" y="722.5" width="110" height="45" as="geometry" />
        </mxCell>
        <mxCell id="MXy2113KjudVlhPQ59Rv-95" style="edgeStyle=orthogonalEdgeStyle;rounded=0;orthogonalLoop=1;jettySize=auto;html=1;exitX=1;exitY=0.5;exitDx=0;exitDy=0;entryX=0;entryY=0.5;entryDx=0;entryDy=0;" parent="1" source="MXy2113KjudVlhPQ59Rv-76" target="MXy2113KjudVlhPQ59Rv-94" edge="1">
          <mxGeometry relative="1" as="geometry" />
        </mxCell>
        <mxCell id="MXy2113KjudVlhPQ59Rv-97" value="" style="group" parent="1" vertex="1" connectable="0">
          <mxGeometry x="1120" y="710" width="110" height="70" as="geometry" />
        </mxCell>
        <mxCell id="MXy2113KjudVlhPQ59Rv-98" value="&lt;div&gt;Restrictor&lt;/div&gt;&lt;div&gt;0.6mm&lt;/div&gt;" style="rounded=0;whiteSpace=wrap;html=1;" parent="MXy2113KjudVlhPQ59Rv-97" vertex="1">
          <mxGeometry width="110" height="70" as="geometry" />
        </mxCell>
        <mxCell id="MXy2113KjudVlhPQ59Rv-100" value="1/8M" style="text;strokeColor=none;align=center;fillColor=none;html=1;verticalAlign=middle;whiteSpace=wrap;rounded=0;fontSize=8;rotation=90;" parent="MXy2113KjudVlhPQ59Rv-97" vertex="1">
          <mxGeometry x="-6" y="30" width="23" height="10" as="geometry" />
        </mxCell>
        <mxCell id="MXy2113KjudVlhPQ59Rv-101" value="1/8F" style="text;strokeColor=none;align=center;fillColor=none;html=1;verticalAlign=middle;whiteSpace=wrap;rounded=0;fontSize=8;" parent="MXy2113KjudVlhPQ59Rv-97" vertex="1">
          <mxGeometry x="43.5" width="23" height="10" as="geometry" />
        </mxCell>
        <mxCell id="MXy2113KjudVlhPQ59Rv-111" style="edgeStyle=orthogonalEdgeStyle;rounded=0;orthogonalLoop=1;jettySize=auto;html=1;exitX=0.5;exitY=0;exitDx=0;exitDy=0;entryX=0.5;entryY=1;entryDx=0;entryDy=0;" parent="1" source="MXy2113KjudVlhPQ59Rv-104" target="MXy2113KjudVlhPQ59Rv-107" edge="1">
          <mxGeometry relative="1" as="geometry" />
        </mxCell>
        <mxCell id="MXy2113KjudVlhPQ59Rv-104" value="&lt;div&gt;1/8 Nipple ?mm&lt;/div&gt;&lt;div&gt;1/8M-F Elbow&lt;/div&gt;" style="shape=step;perimeter=stepPerimeter;whiteSpace=wrap;fixedSize=1;size=10;verticalAlign=middle;align=center;html=1;fontSize=8;" parent="1" vertex="1">
          <mxGeometry x="1120" y="635" width="110" height="45" as="geometry" />
        </mxCell>
        <mxCell id="MXy2113KjudVlhPQ59Rv-105" value="" style="edgeStyle=orthogonalEdgeStyle;rounded=0;orthogonalLoop=1;jettySize=auto;html=1;" parent="1" source="MXy2113KjudVlhPQ59Rv-98" target="MXy2113KjudVlhPQ59Rv-104" edge="1">
          <mxGeometry relative="1" as="geometry" />
        </mxCell>
        <mxCell id="MXy2113KjudVlhPQ59Rv-118" style="edgeStyle=orthogonalEdgeStyle;rounded=0;orthogonalLoop=1;jettySize=auto;html=1;exitX=1;exitY=0.5;exitDx=0;exitDy=0;entryX=0;entryY=0.5;entryDx=0;entryDy=0;" parent="1" source="MXy2113KjudVlhPQ59Rv-112" target="MXy2113KjudVlhPQ59Rv-116" edge="1">
          <mxGeometry relative="1" as="geometry" />
        </mxCell>
        <mxCell id="MXy2113KjudVlhPQ59Rv-128" style="edgeStyle=orthogonalEdgeStyle;rounded=0;orthogonalLoop=1;jettySize=auto;html=1;exitX=1;exitY=0.5;exitDx=0;exitDy=0;entryX=0.109;entryY=0.398;entryDx=0;entryDy=0;entryPerimeter=0;" parent="1" source="MXy2113KjudVlhPQ59Rv-112" target="MXy2113KjudVlhPQ59Rv-121" edge="1">
          <mxGeometry relative="1" as="geometry">
            <Array as="points">
              <mxPoint x="1105" y="915" />
              <mxPoint x="1105" y="990" />
              <mxPoint x="1132" y="990" />
            </Array>
          </mxGeometry>
        </mxCell>
        <mxCell id="MXy2113KjudVlhPQ59Rv-112" value="&lt;div&gt;1/4F-1/8F Capillary&lt;/div&gt;&lt;div&gt;1/8M-F-F Tee&lt;/div&gt;" style="shape=step;perimeter=stepPerimeter;whiteSpace=wrap;fixedSize=1;size=10;verticalAlign=middle;align=center;html=1;fontSize=8;" parent="1" vertex="1">
          <mxGeometry x="985" y="892.5" width="110" height="45" as="geometry" />
        </mxCell>
        <mxCell id="MXy2113KjudVlhPQ59Rv-113" value="" style="edgeStyle=orthogonalEdgeStyle;rounded=0;orthogonalLoop=1;jettySize=auto;html=1;" parent="1" source="MXy2113KjudVlhPQ59Rv-59" target="MXy2113KjudVlhPQ59Rv-112" edge="1">
          <mxGeometry relative="1" as="geometry" />
        </mxCell>
        <mxCell id="MXy2113KjudVlhPQ59Rv-126" style="edgeStyle=orthogonalEdgeStyle;rounded=0;orthogonalLoop=1;jettySize=auto;html=1;exitX=1;exitY=0.5;exitDx=0;exitDy=0;entryX=0.079;entryY=0.572;entryDx=0;entryDy=0;entryPerimeter=0;" parent="1" source="MXy2113KjudVlhPQ59Rv-114" target="MXy2113KjudVlhPQ59Rv-121" edge="1">
          <mxGeometry relative="1" as="geometry">
            <mxPoint x="1110" y="1095" as="targetPoint" />
            <Array as="points">
              <mxPoint x="1105" y="1085" />
              <mxPoint x="1105" y="1003" />
            </Array>
          </mxGeometry>
        </mxCell>
        <mxCell id="MXy2113KjudVlhPQ59Rv-127" style="edgeStyle=orthogonalEdgeStyle;rounded=0;orthogonalLoop=1;jettySize=auto;html=1;exitX=1;exitY=0.5;exitDx=0;exitDy=0;entryX=0;entryY=0.5;entryDx=0;entryDy=0;" parent="1" source="MXy2113KjudVlhPQ59Rv-114" target="MXy2113KjudVlhPQ59Rv-124" edge="1">
          <mxGeometry relative="1" as="geometry">
            <Array as="points">
              <mxPoint x="1100" y="1085" />
              <mxPoint x="1100" y="1085" />
            </Array>
          </mxGeometry>
        </mxCell>
        <mxCell id="MXy2113KjudVlhPQ59Rv-114" value="&lt;div&gt;M6x1M - M10x1F Elbow&lt;/div&gt;&lt;div&gt;M10x1M - 1/8M Adapter&lt;/div&gt;&lt;div&gt;1/8F-F Capillary Tube&lt;/div&gt;&lt;div&gt;1/8M-F-F Tee&lt;/div&gt;" style="shape=step;perimeter=stepPerimeter;whiteSpace=wrap;fixedSize=1;size=10;verticalAlign=middle;align=center;html=1;fontSize=8;" parent="1" vertex="1">
          <mxGeometry x="985" y="1062.5" width="110" height="45" as="geometry" />
        </mxCell>
        <mxCell id="MXy2113KjudVlhPQ59Rv-115" style="edgeStyle=orthogonalEdgeStyle;rounded=0;orthogonalLoop=1;jettySize=auto;html=1;exitX=1;exitY=0.5;exitDx=0;exitDy=0;entryX=0.5;entryY=1;entryDx=0;entryDy=0;" parent="1" source="NBB4tk9cv-uJ-knDmhPw-638" target="MXy2113KjudVlhPQ59Rv-114" edge="1">
          <mxGeometry relative="1" as="geometry">
            <Array as="points">
              <mxPoint x="455" y="745" />
              <mxPoint x="455" y="1168" />
              <mxPoint x="1040" y="1168" />
            </Array>
          </mxGeometry>
        </mxCell>
        <mxCell id="MXy2113KjudVlhPQ59Rv-119" value="" style="group" parent="1" vertex="1" connectable="0">
          <mxGeometry x="1120" y="880" width="110" height="70" as="geometry" />
        </mxCell>
        <mxCell id="MXy2113KjudVlhPQ59Rv-116" value="&lt;div&gt;Steam&lt;/div&gt;&lt;div&gt;Pressure&lt;/div&gt;&lt;div&gt;Sensor (S2)&lt;/div&gt;" style="shape=parallelogram;perimeter=parallelogramPerimeter;whiteSpace=wrap;html=1;fixedSize=1;" parent="MXy2113KjudVlhPQ59Rv-119" vertex="1">
          <mxGeometry width="110" height="70" as="geometry" />
        </mxCell>
        <mxCell id="MXy2113KjudVlhPQ59Rv-117" value="1/8M" style="text;strokeColor=none;align=center;fillColor=none;html=1;verticalAlign=middle;whiteSpace=wrap;rounded=0;fontSize=8;rotation=105;" parent="MXy2113KjudVlhPQ59Rv-119" vertex="1">
          <mxGeometry x="5" y="30" width="23" height="10" as="geometry" />
        </mxCell>
        <mxCell id="MXy2113KjudVlhPQ59Rv-120" value="" style="group" parent="1" vertex="1" connectable="0">
          <mxGeometry x="1120" y="962.5" width="110" height="70" as="geometry" />
        </mxCell>
        <mxCell id="MXy2113KjudVlhPQ59Rv-121" value="&lt;div&gt;Brew/Steam&lt;/div&gt;&lt;div&gt;Pressure&lt;/div&gt;&lt;div&gt;Gauge&lt;/div&gt;" style="shape=parallelogram;perimeter=parallelogramPerimeter;whiteSpace=wrap;html=1;fixedSize=1;" parent="MXy2113KjudVlhPQ59Rv-120" vertex="1">
          <mxGeometry width="110" height="70" as="geometry" />
        </mxCell>
        <mxCell id="MXy2113KjudVlhPQ59Rv-122" value="1/8M" style="text;strokeColor=none;align=center;fillColor=none;html=1;verticalAlign=middle;whiteSpace=wrap;rounded=0;fontSize=8;rotation=105;" parent="MXy2113KjudVlhPQ59Rv-120" vertex="1">
          <mxGeometry x="5" y="30" width="23" height="10" as="geometry" />
        </mxCell>
        <mxCell id="MXy2113KjudVlhPQ59Rv-123" value="" style="group" parent="1" vertex="1" connectable="0">
          <mxGeometry x="1120" y="1050" width="110" height="70" as="geometry" />
        </mxCell>
        <mxCell id="MXy2113KjudVlhPQ59Rv-124" value="&lt;div&gt;Brew&lt;/div&gt;&lt;div&gt;Pressure&lt;/div&gt;&lt;div&gt;Sensor (S1)&lt;/div&gt;" style="shape=parallelogram;perimeter=parallelogramPerimeter;whiteSpace=wrap;html=1;fixedSize=1;" parent="MXy2113KjudVlhPQ59Rv-123" vertex="1">
          <mxGeometry width="110" height="70" as="geometry" />
        </mxCell>
        <mxCell id="MXy2113KjudVlhPQ59Rv-125" value="1/8M" style="text;strokeColor=none;align=center;fillColor=none;html=1;verticalAlign=middle;whiteSpace=wrap;rounded=0;fontSize=8;rotation=105;" parent="MXy2113KjudVlhPQ59Rv-123" vertex="1">
          <mxGeometry x="5" y="30" width="23" height="10" as="geometry" />
        </mxCell>
        <mxCell id="MXy2113KjudVlhPQ59Rv-142" value="" style="group" parent="1" vertex="1" connectable="0">
          <mxGeometry x="1120" y="370" width="110" height="70" as="geometry" />
        </mxCell>
        <mxCell id="MXy2113KjudVlhPQ59Rv-143" value="&lt;div&gt;&amp;nbsp; &amp;nbsp;Water Level&lt;/div&gt;&lt;div&gt;Sensor (S3)&lt;/div&gt;" style="shape=parallelogram;perimeter=parallelogramPerimeter;whiteSpace=wrap;html=1;fixedSize=1;" parent="MXy2113KjudVlhPQ59Rv-142" vertex="1">
          <mxGeometry width="110" height="70" as="geometry" />
        </mxCell>
        <mxCell id="MXy2113KjudVlhPQ59Rv-144" value="1/8M" style="text;strokeColor=none;align=center;fillColor=none;html=1;verticalAlign=middle;whiteSpace=wrap;rounded=0;fontSize=8;rotation=105;" parent="MXy2113KjudVlhPQ59Rv-142" vertex="1">
          <mxGeometry x="5" y="30" width="23" height="10" as="geometry" />
        </mxCell>
        <mxCell id="MXy2113KjudVlhPQ59Rv-146" value="" style="rounded=0;whiteSpace=wrap;html=1;" parent="1" vertex="1">
          <mxGeometry x="970" y="1375" width="90" height="60" as="geometry" />
        </mxCell>
        <mxCell id="MXy2113KjudVlhPQ59Rv-147" style="edgeStyle=orthogonalEdgeStyle;rounded=0;orthogonalLoop=1;jettySize=auto;html=1;exitX=0.625;exitY=0;exitDx=0;exitDy=0;entryX=0;entryY=0.5;entryDx=0;entryDy=0;" parent="1" source="MXy2113KjudVlhPQ59Rv-76" target="MXy2113KjudVlhPQ59Rv-143" edge="1">
          <mxGeometry relative="1" as="geometry">
            <Array as="points">
              <mxPoint x="1040" y="710" />
              <mxPoint x="1040" y="405" />
            </Array>
          </mxGeometry>
        </mxCell>
        <mxCell id="MXy2113KjudVlhPQ59Rv-148" value="" style="group" parent="1" vertex="1" connectable="0">
          <mxGeometry x="1390" y="200" width="110" height="70" as="geometry" />
        </mxCell>
        <mxCell id="MXy2113KjudVlhPQ59Rv-149" value="Check Valve&lt;div&gt;(CV4)&lt;/div&gt;" style="rounded=0;whiteSpace=wrap;html=1;container=0;movable=1;resizable=1;rotatable=1;deletable=1;editable=1;locked=0;connectable=1;" parent="MXy2113KjudVlhPQ59Rv-148" vertex="1">
          <mxGeometry width="110" height="70" as="geometry" />
        </mxCell>
        <mxCell id="MXy2113KjudVlhPQ59Rv-150" value="1/8F" style="text;strokeColor=none;align=center;fillColor=none;html=1;verticalAlign=middle;whiteSpace=wrap;rounded=0;fontSize=8;container=0;movable=1;resizable=1;rotatable=1;deletable=1;editable=1;locked=0;connectable=1;" parent="MXy2113KjudVlhPQ59Rv-148" vertex="1">
          <mxGeometry x="45" y="60" width="25" height="10" as="geometry" />
        </mxCell>
        <mxCell id="MXy2113KjudVlhPQ59Rv-151" value="1/8F" style="text;strokeColor=none;align=center;fillColor=none;html=1;verticalAlign=middle;whiteSpace=wrap;rounded=0;fontSize=8;container=0;movable=1;resizable=1;rotatable=1;deletable=1;editable=1;locked=0;connectable=1;" parent="MXy2113KjudVlhPQ59Rv-148" vertex="1">
          <mxGeometry x="42.5" width="25" height="10" as="geometry" />
        </mxCell>
        <mxCell id="MXy2113KjudVlhPQ59Rv-163" style="edgeStyle=orthogonalEdgeStyle;rounded=0;orthogonalLoop=1;jettySize=auto;html=1;exitX=0.5;exitY=1;exitDx=0;exitDy=0;entryX=0.5;entryY=0;entryDx=0;entryDy=0;" parent="1" source="MXy2113KjudVlhPQ59Rv-152" target="MXy2113KjudVlhPQ59Rv-154" edge="1">
          <mxGeometry relative="1" as="geometry" />
        </mxCell>
        <mxCell id="MXy2113KjudVlhPQ59Rv-152" value="1/8M-M Elbow" style="shape=step;perimeter=stepPerimeter;whiteSpace=wrap;fixedSize=1;size=10;verticalAlign=middle;align=center;html=1;fontSize=8;" parent="1" vertex="1">
          <mxGeometry x="1390" y="295" width="110" height="45" as="geometry" />
        </mxCell>
        <mxCell id="MXy2113KjudVlhPQ59Rv-153" value="" style="group" parent="1" vertex="1" connectable="0">
          <mxGeometry x="1390" y="540" width="110" height="70" as="geometry" />
        </mxCell>
        <mxCell id="MXy2113KjudVlhPQ59Rv-154" value="Mixing Manifold" style="rounded=0;whiteSpace=wrap;html=1;container=0;movable=1;resizable=1;rotatable=1;deletable=1;editable=1;locked=0;connectable=1;" parent="MXy2113KjudVlhPQ59Rv-153" vertex="1">
          <mxGeometry width="110" height="70" as="geometry" />
        </mxCell>
        <mxCell id="MXy2113KjudVlhPQ59Rv-155" value="1/8M" style="text;strokeColor=none;align=center;fillColor=none;html=1;verticalAlign=middle;whiteSpace=wrap;rounded=0;fontSize=8;container=0;movable=1;resizable=1;rotatable=1;deletable=1;editable=1;locked=0;connectable=1;" parent="MXy2113KjudVlhPQ59Rv-153" vertex="1">
          <mxGeometry x="42.5" y="60" width="25" height="10" as="geometry" />
        </mxCell>
        <mxCell id="MXy2113KjudVlhPQ59Rv-156" value="1/8F" style="text;strokeColor=none;align=center;fillColor=none;html=1;verticalAlign=middle;whiteSpace=wrap;rounded=0;fontSize=8;container=0;movable=1;resizable=1;rotatable=1;deletable=1;editable=1;locked=0;connectable=1;" parent="MXy2113KjudVlhPQ59Rv-153" vertex="1">
          <mxGeometry x="42.5" width="25" height="10" as="geometry" />
        </mxCell>
        <mxCell id="MXy2113KjudVlhPQ59Rv-157" value="1/8F" style="text;strokeColor=none;align=center;fillColor=none;html=1;verticalAlign=middle;whiteSpace=wrap;rounded=0;fontSize=8;movable=1;resizable=1;rotatable=1;deletable=1;editable=1;locked=0;connectable=1;rotation=90;" parent="MXy2113KjudVlhPQ59Rv-153" vertex="1">
          <mxGeometry x="-7" y="30" width="25" height="10" as="geometry" />
        </mxCell>
        <mxCell id="MXy2113KjudVlhPQ59Rv-160" style="edgeStyle=orthogonalEdgeStyle;rounded=0;orthogonalLoop=1;jettySize=auto;html=1;exitX=1;exitY=0.5;exitDx=0;exitDy=0;entryX=0;entryY=0.5;entryDx=0;entryDy=0;" parent="1" source="MXy2113KjudVlhPQ59Rv-158" target="MXy2113KjudVlhPQ59Rv-154" edge="1">
          <mxGeometry relative="1" as="geometry" />
        </mxCell>
        <mxCell id="MXy2113KjudVlhPQ59Rv-158" value="1/8M-M Elbow" style="shape=step;perimeter=stepPerimeter;whiteSpace=wrap;fixedSize=1;size=10;verticalAlign=middle;align=center;html=1;fontSize=8;" parent="1" vertex="1">
          <mxGeometry x="1255" y="552.5" width="110" height="45" as="geometry" />
        </mxCell>
        <mxCell id="MXy2113KjudVlhPQ59Rv-159" style="edgeStyle=orthogonalEdgeStyle;rounded=0;orthogonalLoop=1;jettySize=auto;html=1;exitX=1;exitY=0.5;exitDx=0;exitDy=0;entryX=0;entryY=0.5;entryDx=0;entryDy=0;" parent="1" source="MXy2113KjudVlhPQ59Rv-107" target="MXy2113KjudVlhPQ59Rv-158" edge="1">
          <mxGeometry relative="1" as="geometry" />
        </mxCell>
        <mxCell id="MXy2113KjudVlhPQ59Rv-161" style="edgeStyle=orthogonalEdgeStyle;rounded=0;orthogonalLoop=1;jettySize=auto;html=1;exitX=0.5;exitY=1;exitDx=0;exitDy=0;entryX=0.5;entryY=0;entryDx=0;entryDy=0;" parent="1" source="MXy2113KjudVlhPQ59Rv-149" target="MXy2113KjudVlhPQ59Rv-152" edge="1">
          <mxGeometry relative="1" as="geometry" />
        </mxCell>
        <mxCell id="MXy2113KjudVlhPQ59Rv-165" value="Hot Water Wand" style="rounded=1;whiteSpace=wrap;html=1;arcSize=50;" parent="1" vertex="1">
          <mxGeometry x="1390" y="1220" width="110" height="50" as="geometry" />
        </mxCell>
        <mxCell id="MXy2113KjudVlhPQ59Rv-177" style="edgeStyle=orthogonalEdgeStyle;rounded=0;orthogonalLoop=1;jettySize=auto;html=1;exitX=0.5;exitY=1;exitDx=0;exitDy=0;entryX=0.5;entryY=0;entryDx=0;entryDy=0;" parent="1" source="MXy2113KjudVlhPQ59Rv-166" target="MXy2113KjudVlhPQ59Rv-165" edge="1">
          <mxGeometry relative="1" as="geometry" />
        </mxCell>
        <mxCell id="MXy2113KjudVlhPQ59Rv-166" value="1/8M - M8x1F Adapter" style="shape=step;perimeter=stepPerimeter;whiteSpace=wrap;fixedSize=1;size=10;verticalAlign=middle;align=center;html=1;fontSize=8;" parent="1" vertex="1">
          <mxGeometry x="1390" y="807.5" width="110" height="45" as="geometry" />
        </mxCell>
        <mxCell id="MXy2113KjudVlhPQ59Rv-168" value="" style="group" parent="1" vertex="1" connectable="0">
          <mxGeometry x="850" y="370" width="110" height="70" as="geometry" />
        </mxCell>
        <mxCell id="MXy2113KjudVlhPQ59Rv-1" value="&lt;div&gt;Steam&lt;/div&gt;&lt;div&gt;Solenoid&lt;/div&gt;&lt;div&gt;(Pilot)&lt;/div&gt;" style="rhombus;whiteSpace=wrap;html=1;fontSize=10;container=0;" parent="MXy2113KjudVlhPQ59Rv-168" vertex="1">
          <mxGeometry width="110" height="70" as="geometry" />
        </mxCell>
        <mxCell id="MXy2113KjudVlhPQ59Rv-2" value="1/8F" style="text;strokeColor=none;align=center;fillColor=none;html=1;verticalAlign=middle;whiteSpace=wrap;rounded=0;fontSize=8;movable=1;resizable=1;rotatable=1;deletable=1;editable=1;locked=0;connectable=1;container=0;" parent="MXy2113KjudVlhPQ59Rv-168" vertex="1">
          <mxGeometry x="42.5" y="55.5" width="25" height="10" as="geometry" />
        </mxCell>
        <mxCell id="MXy2113KjudVlhPQ59Rv-4" value="1/8F" style="text;strokeColor=none;align=center;fillColor=none;html=1;verticalAlign=middle;whiteSpace=wrap;rounded=0;fontSize=8;movable=1;resizable=1;rotatable=1;deletable=1;editable=1;locked=0;connectable=1;rotation=90;container=0;" parent="MXy2113KjudVlhPQ59Rv-168" vertex="1">
          <mxGeometry x="5" y="30" width="25" height="10" as="geometry" />
        </mxCell>
        <mxCell id="MXy2113KjudVlhPQ59Rv-174" value="" style="group" parent="1" vertex="1" connectable="0">
          <mxGeometry x="1390" y="710" width="110" height="70" as="geometry" />
        </mxCell>
        <mxCell id="MXy2113KjudVlhPQ59Rv-167" value="&lt;div&gt;Hot Water&lt;/div&gt;&lt;div&gt;Solenoid&lt;/div&gt;&lt;div&gt;(Direct)&lt;/div&gt;" style="rhombus;whiteSpace=wrap;html=1;fontSize=10;" parent="MXy2113KjudVlhPQ59Rv-174" vertex="1">
          <mxGeometry width="110" height="70" as="geometry" />
        </mxCell>
        <mxCell id="MXy2113KjudVlhPQ59Rv-169" value="1/8F" style="text;strokeColor=none;align=center;fillColor=none;html=1;verticalAlign=middle;whiteSpace=wrap;rounded=0;fontSize=8;movable=1;resizable=1;rotatable=1;deletable=1;editable=1;locked=0;connectable=1;container=0;" parent="MXy2113KjudVlhPQ59Rv-174" vertex="1">
          <mxGeometry x="42.5" y="56" width="25" height="10" as="geometry" />
        </mxCell>
        <mxCell id="MXy2113KjudVlhPQ59Rv-173" value="1/8F" style="text;strokeColor=none;align=center;fillColor=none;html=1;verticalAlign=middle;whiteSpace=wrap;rounded=0;fontSize=8;movable=1;resizable=1;rotatable=1;deletable=1;editable=1;locked=0;connectable=1;container=0;" parent="MXy2113KjudVlhPQ59Rv-174" vertex="1">
          <mxGeometry x="42.5" y="5" width="25" height="10" as="geometry" />
        </mxCell>
        <mxCell id="MXy2113KjudVlhPQ59Rv-175" value="" style="edgeStyle=orthogonalEdgeStyle;rounded=0;orthogonalLoop=1;jettySize=auto;html=1;exitX=0.5;exitY=1;exitDx=0;exitDy=0;" parent="1" source="MXy2113KjudVlhPQ59Rv-167" target="MXy2113KjudVlhPQ59Rv-166" edge="1">
          <mxGeometry relative="1" as="geometry">
            <Array as="points">
              <mxPoint x="1445" y="795" />
              <mxPoint x="1445" y="795" />
            </Array>
          </mxGeometry>
        </mxCell>
        <mxCell id="MXy2113KjudVlhPQ59Rv-176" value="" style="edgeStyle=orthogonalEdgeStyle;rounded=0;orthogonalLoop=1;jettySize=auto;html=1;entryX=0.5;entryY=0;entryDx=0;entryDy=0;" parent="1" source="MXy2113KjudVlhPQ59Rv-154" target="MXy2113KjudVlhPQ59Rv-167" edge="1">
          <mxGeometry relative="1" as="geometry" />
        </mxCell>
        <mxCell id="MXy2113KjudVlhPQ59Rv-178" style="edgeStyle=orthogonalEdgeStyle;rounded=0;orthogonalLoop=1;jettySize=auto;html=1;exitX=0.5;exitY=1;exitDx=0;exitDy=0;entryX=0.5;entryY=0;entryDx=0;entryDy=0;" parent="1" source="MXy2113KjudVlhPQ59Rv-67" target="MXy2113KjudVlhPQ59Rv-149" edge="1">
          <mxGeometry relative="1" as="geometry" />
        </mxCell>
        <mxCell id="MXy2113KjudVlhPQ59Rv-76" value="Steam&lt;div&gt;Boiler&lt;/div&gt;" style="shape=hexagon;perimeter=hexagonPerimeter2;whiteSpace=wrap;html=1;fixedSize=1;" parent="1" vertex="1">
          <mxGeometry x="850" y="710" width="110" height="70" as="geometry" />
        </mxCell>
        <mxCell id="MXy2113KjudVlhPQ59Rv-81" value="1/4F" style="text;strokeColor=none;align=center;fillColor=none;html=1;verticalAlign=middle;whiteSpace=wrap;rounded=0;fontSize=8;rotation=-90;" parent="1" vertex="1">
          <mxGeometry x="939" y="740" width="23" height="10" as="geometry" />
        </mxCell>
        <mxCell id="MXy2113KjudVlhPQ59Rv-83" value="1/4F" style="text;strokeColor=none;align=center;fillColor=none;html=1;verticalAlign=middle;whiteSpace=wrap;rounded=0;fontSize=8;rotation=0;" parent="1" vertex="1">
          <mxGeometry x="893.5" y="769" width="23" height="10" as="geometry" />
        </mxCell>
        <mxCell id="MXy2113KjudVlhPQ59Rv-84" value="1/4F" style="text;strokeColor=none;align=center;fillColor=none;html=1;verticalAlign=middle;whiteSpace=wrap;rounded=0;fontSize=8;rotation=0;" parent="1" vertex="1">
          <mxGeometry x="893.5" y="710.5" width="23" height="10" as="geometry" />
        </mxCell>
        <mxCell id="MXy2113KjudVlhPQ59Rv-86" value="1/4F" style="text;strokeColor=none;align=center;fillColor=none;html=1;verticalAlign=middle;whiteSpace=wrap;rounded=0;fontSize=8;rotation=90;" parent="1" vertex="1">
          <mxGeometry x="847" y="740" width="23" height="10" as="geometry" />
        </mxCell>
        <mxCell id="MXy2113KjudVlhPQ59Rv-90" value="1/4F" style="text;strokeColor=none;align=center;fillColor=none;html=1;verticalAlign=middle;whiteSpace=wrap;rounded=0;fontSize=8;rotation=60;" parent="1" vertex="1">
          <mxGeometry x="928.0001270189222" y="713.499292143521" width="23" height="10" as="geometry" />
        </mxCell>
        <mxCell id="NBB4tk9cv-uJ-knDmhPw-503" value="" style="group" parent="1" vertex="1" connectable="0">
          <mxGeometry x="795" y="1375" width="110" height="70" as="geometry" />
        </mxCell>
        <mxCell id="NBB4tk9cv-uJ-knDmhPw-495" value="Text" style="rounded=0;whiteSpace=wrap;html=1;" parent="NBB4tk9cv-uJ-knDmhPw-503" vertex="1">
          <mxGeometry width="110" height="70" as="geometry" />
        </mxCell>
        <mxCell id="NBB4tk9cv-uJ-knDmhPw-496" value="1/8F" style="text;strokeColor=none;align=center;fillColor=none;html=1;verticalAlign=middle;whiteSpace=wrap;rounded=0;fontSize=8;" parent="NBB4tk9cv-uJ-knDmhPw-503" vertex="1">
          <mxGeometry x="43.5" y="59" width="23" height="10" as="geometry" />
        </mxCell>
        <mxCell id="NBB4tk9cv-uJ-knDmhPw-499" value="1/8F" style="text;strokeColor=none;align=center;fillColor=none;html=1;verticalAlign=middle;whiteSpace=wrap;rounded=0;fontSize=8;rotation=-90;" parent="NBB4tk9cv-uJ-knDmhPw-503" vertex="1">
          <mxGeometry x="92.5" y="30" width="23" height="10" as="geometry" />
        </mxCell>
        <mxCell id="NBB4tk9cv-uJ-knDmhPw-501" value="1/8F" style="text;strokeColor=none;align=center;fillColor=none;html=1;verticalAlign=middle;whiteSpace=wrap;rounded=0;fontSize=8;" parent="NBB4tk9cv-uJ-knDmhPw-503" vertex="1">
          <mxGeometry x="43.5" y="1" width="23" height="10" as="geometry" />
        </mxCell>
        <mxCell id="NBB4tk9cv-uJ-knDmhPw-502" value="1/8F" style="text;strokeColor=none;align=center;fillColor=none;html=1;verticalAlign=middle;whiteSpace=wrap;rounded=0;fontSize=8;rotation=90;" parent="NBB4tk9cv-uJ-knDmhPw-503" vertex="1">
          <mxGeometry x="-6" y="30" width="23" height="10" as="geometry" />
        </mxCell>
        <mxCell id="MXy2113KjudVlhPQ59Rv-184" value="" style="edgeStyle=orthogonalEdgeStyle;rounded=0;orthogonalLoop=1;jettySize=auto;html=1;" parent="1" source="MXy2113KjudVlhPQ59Rv-186" target="NBB4tk9cv-uJ-knDmhPw-676" edge="1">
          <mxGeometry relative="1" as="geometry" />
        </mxCell>
        <mxCell id="MXy2113KjudVlhPQ59Rv-182" value="Residential" style="rounded=1;whiteSpace=wrap;html=1;arcSize=50;movable=1;resizable=1;rotatable=1;deletable=1;editable=1;locked=0;connectable=1;" parent="1" vertex="1">
          <mxGeometry x="-230" y="1220" width="110" height="50" as="geometry" />
        </mxCell>
        <mxCell id="MXy2113KjudVlhPQ59Rv-194" style="edgeStyle=orthogonalEdgeStyle;rounded=0;orthogonalLoop=1;jettySize=auto;html=1;exitX=0.5;exitY=0;exitDx=0;exitDy=0;entryX=0.5;entryY=1;entryDx=0;entryDy=0;" parent="1" source="MXy2113KjudVlhPQ59Rv-203" target="MXy2113KjudVlhPQ59Rv-200" edge="1">
          <mxGeometry relative="1" as="geometry" />
        </mxCell>
        <mxCell id="MXy2113KjudVlhPQ59Rv-183" value="&lt;div&gt;Residential&lt;/div&gt;&lt;div&gt;Solenoid&lt;/div&gt;&lt;div&gt;(Pilot)&lt;/div&gt;" style="rhombus;whiteSpace=wrap;html=1;fontSize=10;container=0;" parent="1" vertex="1">
          <mxGeometry x="-230" y="880" width="110" height="70" as="geometry" />
        </mxCell>
        <mxCell id="MXy2113KjudVlhPQ59Rv-185" value="" style="edgeStyle=orthogonalEdgeStyle;rounded=0;orthogonalLoop=1;jettySize=auto;html=1;" parent="1" source="MXy2113KjudVlhPQ59Rv-196" target="MXy2113KjudVlhPQ59Rv-183" edge="1">
          <mxGeometry relative="1" as="geometry" />
        </mxCell>
        <mxCell id="MXy2113KjudVlhPQ59Rv-187" value="" style="edgeStyle=orthogonalEdgeStyle;rounded=0;orthogonalLoop=1;jettySize=auto;html=1;" parent="1" source="MXy2113KjudVlhPQ59Rv-182" target="MXy2113KjudVlhPQ59Rv-186" edge="1">
          <mxGeometry relative="1" as="geometry">
            <mxPoint x="-175" y="1220" as="sourcePoint" />
            <mxPoint x="-175" y="1120" as="targetPoint" />
          </mxGeometry>
        </mxCell>
        <mxCell id="MXy2113KjudVlhPQ59Rv-186" value="3/8F Poly - 1/4MNPT" style="shape=step;perimeter=stepPerimeter;whiteSpace=wrap;fixedSize=1;size=10;verticalAlign=middle;align=center;html=1;fontSize=8;" parent="1" vertex="1">
          <mxGeometry x="-230" y="1150" width="110" height="45" as="geometry" />
        </mxCell>
        <mxCell id="MXy2113KjudVlhPQ59Rv-190" value="1/8F" style="text;strokeColor=none;align=center;fillColor=none;html=1;verticalAlign=middle;whiteSpace=wrap;rounded=0;fontSize=8;" parent="1" vertex="1">
          <mxGeometry x="-186.5" y="935" width="23" height="10" as="geometry" />
        </mxCell>
        <mxCell id="MXy2113KjudVlhPQ59Rv-192" style="edgeStyle=orthogonalEdgeStyle;rounded=0;orthogonalLoop=1;jettySize=auto;html=1;exitX=1;exitY=0.5;exitDx=0;exitDy=0;entryX=0;entryY=0.5;entryDx=0;entryDy=0;" parent="1" source="MXy2113KjudVlhPQ59Rv-193" target="NBB4tk9cv-uJ-knDmhPw-573" edge="1">
          <mxGeometry relative="1" as="geometry">
            <mxPoint x="-5" y="1225" as="targetPoint" />
          </mxGeometry>
        </mxCell>
        <mxCell id="MXy2113KjudVlhPQ59Rv-193" value="&lt;div&gt;&lt;span style=&quot;background-color: transparent; color: light-dark(rgb(0, 0, 0), rgb(255, 255, 255));&quot;&gt;9/6mm Silicone Tube&lt;/span&gt;&lt;/div&gt;1/8M - 8mm Barb" style="shape=step;perimeter=stepPerimeter;whiteSpace=wrap;fixedSize=1;size=10;verticalAlign=middle;align=center;html=1;fontSize=8;" parent="1" vertex="1">
          <mxGeometry x="-230" y="638" width="110" height="45" as="geometry" />
        </mxCell>
        <mxCell id="MXy2113KjudVlhPQ59Rv-195" value="1/8F" style="text;strokeColor=none;align=center;fillColor=none;html=1;verticalAlign=middle;whiteSpace=wrap;rounded=0;fontSize=8;" parent="1" vertex="1">
          <mxGeometry x="-186.5" y="884.5" width="23" height="10" as="geometry" />
        </mxCell>
        <mxCell id="MXy2113KjudVlhPQ59Rv-197" value="" style="edgeStyle=orthogonalEdgeStyle;rounded=0;orthogonalLoop=1;jettySize=auto;html=1;" parent="1" source="NBB4tk9cv-uJ-knDmhPw-676" target="MXy2113KjudVlhPQ59Rv-196" edge="1">
          <mxGeometry relative="1" as="geometry">
            <mxPoint x="-175" y="1050" as="sourcePoint" />
            <mxPoint x="-175" y="950" as="targetPoint" />
          </mxGeometry>
        </mxCell>
        <mxCell id="MXy2113KjudVlhPQ59Rv-196" value="1/4MNPT - 1/8M -&lt;div&gt;&lt;span style=&quot;background-color: transparent; color: light-dark(rgb(0, 0, 0), rgb(255, 255, 255));&quot;&gt;Hex Nipple&lt;/span&gt;&lt;/div&gt;" style="shape=step;perimeter=stepPerimeter;whiteSpace=wrap;fixedSize=1;size=10;verticalAlign=middle;align=center;html=1;fontSize=8;" parent="1" vertex="1">
          <mxGeometry x="-230" y="975" width="110" height="45" as="geometry" />
        </mxCell>
        <mxCell id="MXy2113KjudVlhPQ59Rv-198" value="" style="group" parent="1" vertex="1" connectable="0">
          <mxGeometry x="1120" y="540" width="110" height="70" as="geometry" />
        </mxCell>
        <mxCell id="MXy2113KjudVlhPQ59Rv-107" value="Check Valve&lt;div&gt;(CV3)&lt;/div&gt;" style="rounded=0;whiteSpace=wrap;html=1;container=0;movable=1;resizable=1;rotatable=1;deletable=1;editable=1;locked=0;connectable=1;" parent="MXy2113KjudVlhPQ59Rv-198" vertex="1">
          <mxGeometry width="110" height="70" as="geometry" />
        </mxCell>
        <mxCell id="MXy2113KjudVlhPQ59Rv-109" value="1/8F" style="text;strokeColor=none;align=center;fillColor=none;html=1;verticalAlign=middle;whiteSpace=wrap;rounded=0;fontSize=8;container=0;movable=1;resizable=1;rotatable=1;deletable=1;editable=1;locked=0;connectable=1;rotation=-90;" parent="MXy2113KjudVlhPQ59Rv-198" vertex="1">
          <mxGeometry x="92" y="30" width="25" height="10" as="geometry" />
        </mxCell>
        <mxCell id="MXy2113KjudVlhPQ59Rv-108" value="1/8F" style="text;strokeColor=none;align=center;fillColor=none;html=1;verticalAlign=middle;whiteSpace=wrap;rounded=0;fontSize=8;container=0;movable=1;resizable=1;rotatable=1;deletable=1;editable=1;locked=0;connectable=1;" parent="MXy2113KjudVlhPQ59Rv-198" vertex="1">
          <mxGeometry x="42.5" y="60" width="25" height="10" as="geometry" />
        </mxCell>
        <mxCell id="MXy2113KjudVlhPQ59Rv-199" value="" style="group" parent="1" vertex="1" connectable="0">
          <mxGeometry x="-230" y="710" width="110" height="70" as="geometry" />
        </mxCell>
        <mxCell id="MXy2113KjudVlhPQ59Rv-200" value="Check Valve&lt;div&gt;(CV0)&lt;/div&gt;" style="rounded=0;whiteSpace=wrap;html=1;container=0;movable=1;resizable=1;rotatable=1;deletable=1;editable=1;locked=0;connectable=1;" parent="MXy2113KjudVlhPQ59Rv-199" vertex="1">
          <mxGeometry width="110" height="70" as="geometry" />
        </mxCell>
        <mxCell id="MXy2113KjudVlhPQ59Rv-201" value="1/8F" style="text;strokeColor=none;align=center;fillColor=none;html=1;verticalAlign=middle;whiteSpace=wrap;rounded=0;fontSize=8;container=0;movable=1;resizable=1;rotatable=1;deletable=1;editable=1;locked=0;connectable=1;" parent="MXy2113KjudVlhPQ59Rv-199" vertex="1">
          <mxGeometry x="45" y="60" width="25" height="10" as="geometry" />
        </mxCell>
        <mxCell id="MXy2113KjudVlhPQ59Rv-202" value="1/8F" style="text;strokeColor=none;align=center;fillColor=none;html=1;verticalAlign=middle;whiteSpace=wrap;rounded=0;fontSize=8;container=0;movable=1;resizable=1;rotatable=1;deletable=1;editable=1;locked=0;connectable=1;" parent="MXy2113KjudVlhPQ59Rv-199" vertex="1">
          <mxGeometry x="42.5" width="25" height="10" as="geometry" />
        </mxCell>
        <mxCell id="MXy2113KjudVlhPQ59Rv-204" value="" style="edgeStyle=orthogonalEdgeStyle;rounded=0;orthogonalLoop=1;jettySize=auto;html=1;exitX=0.5;exitY=0;exitDx=0;exitDy=0;entryX=0.5;entryY=1;entryDx=0;entryDy=0;" parent="1" source="MXy2113KjudVlhPQ59Rv-183" target="MXy2113KjudVlhPQ59Rv-203" edge="1">
          <mxGeometry relative="1" as="geometry">
            <mxPoint x="-175" y="880" as="sourcePoint" />
            <mxPoint x="-175" y="683" as="targetPoint" />
          </mxGeometry>
        </mxCell>
        <mxCell id="MXy2113KjudVlhPQ59Rv-203" value="1/8M-M Hex Nipple" style="shape=step;perimeter=stepPerimeter;whiteSpace=wrap;fixedSize=1;size=10;verticalAlign=middle;align=center;html=1;fontSize=8;flipV=1;movable=1;resizable=1;rotatable=1;deletable=1;editable=1;locked=0;connectable=1;" parent="1" vertex="1">
          <mxGeometry x="-230" y="805" width="110" height="50" as="geometry" />
        </mxCell>
        <mxCell id="MXy2113KjudVlhPQ59Rv-205" style="edgeStyle=orthogonalEdgeStyle;rounded=0;orthogonalLoop=1;jettySize=auto;html=1;exitX=0.5;exitY=0;exitDx=0;exitDy=0;entryX=0.5;entryY=1;entryDx=0;entryDy=0;" parent="1" source="MXy2113KjudVlhPQ59Rv-200" target="MXy2113KjudVlhPQ59Rv-193" edge="1">
          <mxGeometry relative="1" as="geometry" />
        </mxCell>
        <mxCell id="KgHm3Q5R35HV1HHAb_v0-6" value="" style="edgeStyle=orthogonalEdgeStyle;rounded=0;orthogonalLoop=1;jettySize=auto;html=1;exitX=0;exitY=0.5;exitDx=0;exitDy=0;entryX=1;entryY=0.5;entryDx=0;entryDy=0;" edge="1" parent="1" source="NBB4tk9cv-uJ-knDmhPw-634" target="KgHm3Q5R35HV1HHAb_v0-5">
          <mxGeometry relative="1" as="geometry">
            <mxPoint x="310" y="575" as="sourcePoint" />
            <mxPoint x="150" y="1245" as="targetPoint" />
          </mxGeometry>
        </mxCell>
        <mxCell id="KgHm3Q5R35HV1HHAb_v0-5" value="1/8M - 6mm Barb Elbow" style="shape=step;perimeter=stepPerimeter;whiteSpace=wrap;fixedSize=1;size=10;verticalAlign=middle;align=center;html=1;fontSize=8;flipV=1;movable=1;resizable=1;rotatable=1;deletable=1;editable=1;locked=0;connectable=1;" vertex="1" parent="1">
          <mxGeometry x="175" y="550" width="110" height="50" as="geometry" />
        </mxCell>
        <mxCell id="KgHm3Q5R35HV1HHAb_v0-10" value="" style="edgeStyle=orthogonalEdgeStyle;rounded=0;orthogonalLoop=1;jettySize=auto;html=1;exitX=0;exitY=0.5;exitDx=0;exitDy=0;" edge="1" parent="1" source="NBB4tk9cv-uJ-knDmhPw-576">
          <mxGeometry relative="1" as="geometry">
            <mxPoint x="-40" y="660" as="targetPoint" />
          </mxGeometry>
        </mxCell>
      </root>
    </mxGraphModel>
  </diagram>
</mxfile>
